  0
SECTION
  2
HEADER
  9
$ACADVER
  1
AC1014
  9
$HANDSEED
  5
FFFF
  9
$MEASUREMENT
 70
     1
  0
ENDSEC
  0
SECTION
  2
TABLES
  0
TABLE
  2
VPORT
  5
8
330
0
100
AcDbSymbolTable
 70
     4
  0
VPORT
  5
2E
330
8
100
AcDbSymbolTableRecord
100
AcDbViewportTableRecord
  2
*ACTIVE
 70
     0
 10
0.0
 20
0.0
 11
1.0
 21
1.0
 12
210.0
 22
148.5
 13
0.0
 23
0.0
 14
10.0
 24
10.0
 15
10.0
 25
10.0
 16
0.0
 26
0.0
 36
1.0
 17
0.0
 27
0.0
 37
0.0
 40
341.0
 41
1.24
 42
50.0
 43
0.0
 44
0.0
 50
0.0
 51
0.0
 71
     0
 72
   100
 73
     1
 74
     3
 75
     0
 76
     0
 77
     0
 78
     0
  0
ENDTAB
  0
TABLE
  2
LTYPE
  5
5
330
0
100
AcDbSymbolTable
 70
     1
  0
LTYPE
  5
14
330
5
100
AcDbSymbolTableRecord
100
AcDbLinetypeTableRecord
  2
BYBLOCK
 70
     0
  3

 72
    65
 73
     0
 40
0.0
  0
LTYPE
  5
15
330
5
100
AcDbSymbolTableRecord
100
AcDbLinetypeTableRecord
  2
BYLAYER
 70
     0
  3

 72
    65
 73
     0
 40
0.0
  0
LTYPE
  5
16
330
5
100
AcDbSymbolTableRecord
100
AcDbLinetypeTableRecord
  2
CONTINUOUS
 70
     0
  3
Solid line
 72
    65
 73
     0
 40
0.0
  0
ENDTAB
  0
TABLE
  2
LAYER
  5
2
100
AcDbSymbolTable
 70
2
  0
LAYER
  5
50
100
AcDbSymbolTableRecord
100
AcDbLayerTableRecord
  2
0
 70
0
  6
CONTINUOUS
  0
LAYER
  5
51
100
AcDbSymbolTableRecord
100
AcDbLayerTableRecord
  2
Layer_1
 70
0
  6
CONTINUOUS
  0
ENDTAB
  0
TABLE
  2
STYLE
  5
3
330
0
100
AcDbSymbolTable
 70
     1
  0
STYLE
  5
11
330
3
100
AcDbSymbolTableRecord
100
AcDbTextStyleTableRecord
  2
STANDARD
 70
     0
 40
0.0
 41
1.0
 50
0.0
 71
     0
 42
2.5
  3
txt
  4

  0
ENDTAB
  0
TABLE
  2
VIEW
  5
6
330
0
100
AcDbSymbolTable
 70
     0
  0
ENDTAB
  0
TABLE
  2
UCS
  5
7
330
0
100
AcDbSymbolTable
 70
     0
  0
ENDTAB
  0
TABLE
  2
APPID
  5
9
330
0
100
AcDbSymbolTable
 70
     2
  0
APPID
  5
12
330
9
100
AcDbSymbolTableRecord
100
AcDbRegAppTableRecord
  2
ACAD
 70
     0
  0
ENDTAB
  0
TABLE
  2
DIMSTYLE
  5
A
330
0
100
AcDbSymbolTable
 70
     1
  0
DIMSTYLE
105
27
330
A
100
AcDbSymbolTableRecord
100
AcDbDimStyleTableRecord
  2
ISO-25
 70
     0
  3

  4

  5

  6

  7

 40
1.0
 41
2.5
 42
0.625
 43
3.75
 44
1.25
 45
0.0
 46
0.0
 47
0.0
 48
0.0
140
2.5
141
2.5
142
0.0
143
0.03937007874016
144
1.0
145
0.0
146
1.0
147
0.625
 71
     0
 72
     0
 73
     0
 74
     0
 75
     0
 76
     0
 77
     1
 78
     8
170
     0
171
     3
172
     1
173
     0
174
     0
175
     0
176
     0
177
     0
178
     0
270
     2
271
     2
272
     2
273
     2
274
     3
340
11
275
     0
280
     0
281
     0
282
     0
283
     0
284
     8
285
     0
286
     0
287
     3
288
     0
  0
ENDTAB
  0
TABLE
  2
BLOCK_RECORD
  5
1
330
0
100
AcDbSymbolTable
 70
     1
  0
BLOCK_RECORD
  5
1F
330
1
100
AcDbSymbolTableRecord
100
AcDbBlockTableRecord
  2
*MODEL_SPACE
  0
BLOCK_RECORD
  5
1B
330
1
100
AcDbSymbolTableRecord
100
AcDbBlockTableRecord
  2
*PAPER_SPACE
  0
ENDTAB
  0
ENDSEC
  0
SECTION
  2
BLOCKS
  0
BLOCK
  5
20
330
1F
100
AcDbEntity
  8
0
100
AcDbBlockBegin
  2
*MODEL_SPACE
 70
     0
 10
0.0
 20
0.0
 30
0.0
  3
*MODEL_SPACE
  1

  0
ENDBLK
  5
21
330
1F
100
AcDbEntity
  8
0
100
AcDbBlockEnd
  0
BLOCK
  5
1C
330
1B
100
AcDbEntity
 67
     1
  8
0
100
AcDbBlockBegin
  2
*PAPER_SPACE
  1

  0
ENDBLK
  5
1D
330
1B
100
AcDbEntity
 67
     1
  8
0
100
AcDbBlockEnd
  0
ENDSEC
  0
SECTION
  2
ENTITIES
  0
LINE
  5
100
100
AcDbEntity
  8
Layer_1
 62
1
100
AcDbLine
 10
0.202887
 20
16.702464
 30
0.0
 11
0.202887
 21
23.303826
 31
0.0
  0
LINE
  5
101
100
AcDbEntity
  8
Layer_1
 62
1
100
AcDbLine
 10
0.202887
 20
23.303826
 30
0.0
 11
9.953839
 21
23.303826
 31
0.0
  0
LINE
  5
102
100
AcDbEntity
  8
Layer_1
 62
1
100
AcDbLine
 10
9.953839
 20
23.303826
 30
0.0
 11
9.953839
 21
16.702464
 31
0.0
  0
LINE
  5
103
100
AcDbEntity
  8
Layer_1
 62
1
100
AcDbLine
 10
9.953839
 20
16.702464
 30
0.0
 11
0.202887
 21
16.702464
 31
0.0
  0
LINE
  5
104
100
AcDbEntity
  8
Layer_1
 62
1
100
AcDbLine
 10
4.349430
 20
18.651875
 30
0.0
 11
4.349430
 21
21.354415
 31
0.0
  0
SPLINE
  5
105
100
AcDbEntity
  8
Layer_1
 62
1
100
AcDbSpline
 70
8
 71
3
 72
8
 73
4
 74
0
 40
0
 40
0
 40
0
 40
0
 40
1
 40
1
 40
1
 40
1
 10
4.349430
 20
21.354415
 30
0.0
 10
4.349430
 20
21.617515
 30
0.0
 10
4.453946
 20
21.869838
 30
0.0
 10
4.639985
 20
22.055877
 30
0.0
  0
SPLINE
  5
106
100
AcDbEntity
  8
Layer_1
 62
1
100
AcDbSpline
 70
8
 71
3
 72
8
 73
4
 74
0
 40
0
 40
0
 40
0
 40
0
 40
1
 40
1
 40
1
 40
1
 10
4.639985
 20
22.055877
 30
0.0
 10
4.826024
 20
22.241917
 30
0.0
 10
5.078348
 20
22.346433
 30
0.0
 10
5.341447
 20
22.346433
 30
0.0
  0
LINE
  5
107
100
AcDbEntity
  8
Layer_1
 62
1
100
AcDbLine
 10
5.341447
 20
22.346433
 30
0.0
 11
8.152164
 21
22.346433
 31
0.0
  0
SPLINE
  5
108
100
AcDbEntity
  8
Layer_1
 62
1
100
AcDbSpline
 70
8
 71
3
 72
8
 73
4
 74
0
 40
0
 40
0
 40
0
 40
0
 40
1
 40
1
 40
1
 40
1
 10
8.152164
 20
22.346433
 30
0.0
 10
8.415263
 20
22.346433
 30
0.0
 10
8.667587
 20
22.241917
 30
0.0
 10
8.853626
 20
22.055877
 30
0.0
  0
SPLINE
  5
109
100
AcDbEntity
  8
Layer_1
 62
1
100
AcDbSpline
 70
8
 71
3
 72
8
 73
4
 74
0
 40
0
 40
0
 40
0
 40
0
 40
1
 40
1
 40
1
 40
1
 10
8.853626
 20
22.055877
 30
0.0
 10
9.039666
 20
21.869838
 30
0.0
 10
9.144181
 20
21.617515
 30
0.0
 10
9.144181
 20
21.354415
 30
0.0
  0
LINE
  5
10a
100
AcDbEntity
  8
Layer_1
 62
1
100
AcDbLine
 10
9.144181
 20
21.354415
 30
0.0
 11
9.144181
 21
18.651875
 31
0.0
  0
SPLINE
  5
10b
100
AcDbEntity
  8
Layer_1
 62
1
100
AcDbSpline
 70
8
 71
3
 72
8
 73
4
 74
0
 40
0
 40
0
 40
0
 40
0
 40
1
 40
1
 40
1
 40
1
 10
9.144181
 20
18.651875
 30
0.0
 10
9.144181
 20
18.388775
 30
0.0
 10
9.039666
 20
18.136452
 30
0.0
 10
8.853626
 20
17.950412
 30
0.0
  0
SPLINE
  5
10c
100
AcDbEntity
  8
Layer_1
 62
1
100
AcDbSpline
 70
8
 71
3
 72
8
 73
4
 74
0
 40
0
 40
0
 40
0
 40
0
 40
1
 40
1
 40
1
 40
1
 10
8.853626
 20
17.950412
 30
0.0
 10
8.667587
 20
17.764373
 30
0.0
 10
8.415263
 20
17.659857
 30
0.0
 10
8.152164
 20
17.659857
 30
0.0
  0
LINE
  5
10d
100
AcDbEntity
  8
Layer_1
 62
1
100
AcDbLine
 10
8.152164
 20
17.659857
 30
0.0
 11
5.341447
 21
17.659857
 31
0.0
  0
SPLINE
  5
10e
100
AcDbEntity
  8
Layer_1
 62
1
100
AcDbSpline
 70
8
 71
3
 72
8
 73
4
 74
0
 40
0
 40
0
 40
0
 40
0
 40
1
 40
1
 40
1
 40
1
 10
5.341447
 20
17.659857
 30
0.0
 10
5.078348
 20
17.659857
 30
0.0
 10
4.826024
 20
17.764373
 30
0.0
 10
4.639985
 20
17.950412
 30
0.0
  0
SPLINE
  5
10f
100
AcDbEntity
  8
Layer_1
 62
1
100
AcDbSpline
 70
8
 71
3
 72
8
 73
4
 74
0
 40
0
 40
0
 40
0
 40
0
 40
1
 40
1
 40
1
 40
1
 10
4.639985
 20
17.950412
 30
0.0
 10
4.453946
 20
18.136452
 30
0.0
 10
4.349430
 20
18.388775
 30
0.0
 10
4.349430
 20
18.651875
 30
0.0
  0
LINE
  5
110
100
AcDbEntity
  8
Layer_1
 62
1
100
AcDbLine
 10
4.349430
 20
18.651875
 30
0.0
 11
4.349430
 21
18.651875
 31
0.0
  0
LINE
  5
111
100
AcDbEntity
  8
Layer_1
 62
1
100
AcDbLine
 10
20.284623
 20
16.648656
 30
0.0
 11
20.284623
 21
10.050790
 31
0.0
  0
LINE
  5
112
100
AcDbEntity
  8
Layer_1
 62
1
100
AcDbLine
 10
20.284623
 20
10.050790
 30
0.0
 11
17.612225
 21
10.050790
 31
0.0
  0
LINE
  5
113
100
AcDbEntity
  8
Layer_1
 62
1
100
AcDbLine
 10
17.612225
 20
10.050790
 30
0.0
 11
17.612225
 21
16.648656
 31
0.0
  0
LINE
  5
114
100
AcDbEntity
  8
Layer_1
 62
1
100
AcDbLine
 10
17.612225
 20
16.648656
 30
0.0
 11
20.284623
 21
16.648656
 31
0.0
  0
LINE
  5
115
100
AcDbEntity
  8
Layer_1
 62
1
100
AcDbLine
 10
0.149804
 20
10.043002
 30
0.0
 11
6.746854
 21
10.043002
 31
0.0
  0
LINE
  5
116
100
AcDbEntity
  8
Layer_1
 62
1
100
AcDbLine
 10
6.746854
 20
10.043002
 30
0.0
 11
6.746854
 21
9.807172
 31
0.0
  0
LINE
  5
117
100
AcDbEntity
  8
Layer_1
 62
1
100
AcDbLine
 10
6.746854
 20
9.807172
 30
0.0
 11
0.149804
 21
9.807172
 31
0.0
  0
LINE
  5
118
100
AcDbEntity
  8
Layer_1
 62
1
100
AcDbLine
 10
0.149804
 20
9.807172
 30
0.0
 11
0.149804
 21
10.043002
 31
0.0
  0
SPLINE
  5
119
100
AcDbEntity
  8
Layer_1
 62
1
100
AcDbSpline
 70
8
 71
3
 72
8
 73
4
 74
0
 40
0
 40
0
 40
0
 40
0
 40
1
 40
1
 40
1
 40
1
 10
5.504237
 20
11.744685
 30
0.0
 10
5.591817
 20
11.744685
 30
0.0
 10
5.670774
 20
11.797442
 30
0.0
 10
5.704290
 20
11.878356
 30
0.0
  0
SPLINE
  5
11a
100
AcDbEntity
  8
Layer_1
 62
1
100
AcDbSpline
 70
8
 71
3
 72
8
 73
4
 74
0
 40
0
 40
0
 40
0
 40
0
 40
1
 40
1
 40
1
 40
1
 10
5.704290
 20
11.878356
 30
0.0
 10
5.737805
 20
11.959270
 30
0.0
 10
5.719279
 20
12.052405
 30
0.0
 10
5.657351
 20
12.114334
 30
0.0
  0
SPLINE
  5
11b
100
AcDbEntity
  8
Layer_1
 62
1
100
AcDbSpline
 70
8
 71
3
 72
8
 73
4
 74
0
 40
0
 40
0
 40
0
 40
0
 40
1
 40
1
 40
1
 40
1
 10
5.657351
 20
12.114334
 30
0.0
 10
5.595422
 20
12.176263
 30
0.0
 10
5.502286
 20
12.194789
 30
0.0
 10
5.421372
 20
12.161273
 30
0.0
  0
SPLINE
  5
11c
100
AcDbEntity
  8
Layer_1
 62
1
100
AcDbSpline
 70
8
 71
3
 72
8
 73
4
 74
0
 40
0
 40
0
 40
0
 40
0
 40
1
 40
1
 40
1
 40
1
 10
5.421372
 20
12.161273
 30
0.0
 10
5.340459
 20
12.127758
 30
0.0
 10
5.287702
 20
12.048801
 30
0.0
 10
5.287702
 20
11.961220
 30
0.0
  0
SPLINE
  5
11d
100
AcDbEntity
  8
Layer_1
 62
1
100
AcDbSpline
 70
8
 71
3
 72
8
 73
4
 74
0
 40
0
 40
0
 40
0
 40
0
 40
1
 40
1
 40
1
 40
1
 10
5.287702
 20
11.961220
 30
0.0
 10
5.287702
 20
11.903792
 30
0.0
 10
5.310515
 20
11.848715
 30
0.0
 10
5.351123
 20
11.808107
 30
0.0
  0
SPLINE
  5
11e
100
AcDbEntity
  8
Layer_1
 62
1
100
AcDbSpline
 70
8
 71
3
 72
8
 73
4
 74
0
 40
0
 40
0
 40
0
 40
0
 40
1
 40
1
 40
1
 40
1
 10
5.351123
 20
11.808107
 30
0.0
 10
5.391732
 20
11.767499
 30
0.0
 10
5.446808
 20
11.744685
 30
0.0
 10
5.504237
 20
11.744685
 30
0.0
  0
LINE
  5
11f
100
AcDbEntity
  8
Layer_1
 62
1
100
AcDbLine
 10
5.504237
 20
11.744685
 30
0.0
 11
5.504237
 21
11.744685
 31
0.0
  0
SPLINE
  5
120
100
AcDbEntity
  8
Layer_1
 62
1
100
AcDbSpline
 70
8
 71
3
 72
8
 73
4
 74
0
 40
0
 40
0
 40
0
 40
0
 40
1
 40
1
 40
1
 40
1
 10
6.488985
 20
11.587027
 30
0.0
 10
6.544590
 20
11.587027
 30
0.0
 10
6.594719
 20
11.620522
 30
0.0
 10
6.615998
 20
11.671894
 30
0.0
  0
SPLINE
  5
121
100
AcDbEntity
  8
Layer_1
 62
1
100
AcDbSpline
 70
8
 71
3
 72
8
 73
4
 74
0
 40
0
 40
0
 40
0
 40
0
 40
1
 40
1
 40
1
 40
1
 10
6.615998
 20
11.671894
 30
0.0
 10
6.637277
 20
11.723266
 30
0.0
 10
6.625515
 20
11.782398
 30
0.0
 10
6.586197
 20
11.821716
 30
0.0
  0
SPLINE
  5
122
100
AcDbEntity
  8
Layer_1
 62
1
100
AcDbSpline
 70
8
 71
3
 72
8
 73
4
 74
0
 40
0
 40
0
 40
0
 40
0
 40
1
 40
1
 40
1
 40
1
 10
6.586197
 20
11.821716
 30
0.0
 10
6.546878
 20
11.861035
 30
0.0
 10
6.487746
 20
11.872797
 30
0.0
 10
6.436375
 20
11.851518
 30
0.0
  0
SPLINE
  5
123
100
AcDbEntity
  8
Layer_1
 62
1
100
AcDbSpline
 70
8
 71
3
 72
8
 73
4
 74
0
 40
0
 40
0
 40
0
 40
0
 40
1
 40
1
 40
1
 40
1
 10
6.436375
 20
11.851518
 30
0.0
 10
6.385003
 20
11.830239
 30
0.0
 10
6.351507
 20
11.780109
 30
0.0
 10
6.351507
 20
11.724505
 30
0.0
  0
SPLINE
  5
124
100
AcDbEntity
  8
Layer_1
 62
1
100
AcDbSpline
 70
8
 71
3
 72
8
 73
4
 74
0
 40
0
 40
0
 40
0
 40
0
 40
1
 40
1
 40
1
 40
1
 10
6.351507
 20
11.724505
 30
0.0
 10
6.351507
 20
11.688043
 30
0.0
 10
6.365991
 20
11.653075
 30
0.0
 10
6.391774
 20
11.627293
 30
0.0
  0
SPLINE
  5
125
100
AcDbEntity
  8
Layer_1
 62
1
100
AcDbSpline
 70
8
 71
3
 72
8
 73
4
 74
0
 40
0
 40
0
 40
0
 40
0
 40
1
 40
1
 40
1
 40
1
 10
6.391774
 20
11.627293
 30
0.0
 10
6.417556
 20
11.601511
 30
0.0
 10
6.452524
 20
11.587027
 30
0.0
 10
6.488985
 20
11.587027
 30
0.0
  0
LINE
  5
126
100
AcDbEntity
  8
Layer_1
 62
1
100
AcDbLine
 10
6.488985
 20
11.587027
 30
0.0
 11
6.488985
 21
11.587027
 31
0.0
  0
LINE
  5
127
100
AcDbEntity
  8
Layer_1
 62
1
100
AcDbLine
 10
0.855643
 20
10.151614
 30
0.0
 11
0.855643
 21
10.397835
 31
0.0
  0
LINE
  5
128
100
AcDbEntity
  8
Layer_1
 62
1
100
AcDbLine
 10
0.855643
 20
10.397835
 30
0.0
 11
1.339895
 21
10.397835
 31
0.0
  0
LINE
  5
129
100
AcDbEntity
  8
Layer_1
 62
1
100
AcDbLine
 10
1.339895
 20
10.397835
 30
0.0
 11
1.339895
 21
10.151614
 31
0.0
  0
LINE
  5
12a
100
AcDbEntity
  8
Layer_1
 62
1
100
AcDbLine
 10
1.339895
 20
10.151614
 30
0.0
 11
1.345643
 21
10.145866
 31
0.0
  0
LINE
  5
12b
100
AcDbEntity
  8
Layer_1
 62
1
100
AcDbLine
 10
1.345643
 20
10.145866
 30
0.0
 11
1.857769
 21
10.145866
 31
0.0
  0
LINE
  5
12c
100
AcDbEntity
  8
Layer_1
 62
1
100
AcDbLine
 10
1.857769
 20
10.145866
 30
0.0
 11
1.863517
 21
10.151614
 31
0.0
  0
LINE
  5
12d
100
AcDbEntity
  8
Layer_1
 62
1
100
AcDbLine
 10
1.863517
 20
10.151614
 30
0.0
 11
1.863517
 21
10.397835
 31
0.0
  0
LINE
  5
12e
100
AcDbEntity
  8
Layer_1
 62
1
100
AcDbLine
 10
1.863517
 20
10.397835
 30
0.0
 11
2.347769
 21
10.397835
 31
0.0
  0
LINE
  5
12f
100
AcDbEntity
  8
Layer_1
 62
1
100
AcDbLine
 10
2.347769
 20
10.397835
 30
0.0
 11
2.347769
 21
10.151614
 31
0.0
  0
LINE
  5
130
100
AcDbEntity
  8
Layer_1
 62
1
100
AcDbLine
 10
2.347769
 20
10.151614
 30
0.0
 11
2.353517
 21
10.145866
 31
0.0
  0
LINE
  5
131
100
AcDbEntity
  8
Layer_1
 62
1
100
AcDbLine
 10
2.353517
 20
10.145866
 30
0.0
 11
2.865643
 21
10.145866
 31
0.0
  0
LINE
  5
132
100
AcDbEntity
  8
Layer_1
 62
1
100
AcDbLine
 10
2.865643
 20
10.145866
 30
0.0
 11
2.871391
 21
10.151614
 31
0.0
  0
LINE
  5
133
100
AcDbEntity
  8
Layer_1
 62
1
100
AcDbLine
 10
2.871391
 20
10.151614
 30
0.0
 11
2.871391
 21
10.397835
 31
0.0
  0
LINE
  5
134
100
AcDbEntity
  8
Layer_1
 62
1
100
AcDbLine
 10
2.871391
 20
10.397835
 30
0.0
 11
3.355643
 21
10.397835
 31
0.0
  0
LINE
  5
135
100
AcDbEntity
  8
Layer_1
 62
1
100
AcDbLine
 10
3.355643
 20
10.397835
 30
0.0
 11
3.355643
 21
10.151614
 31
0.0
  0
LINE
  5
136
100
AcDbEntity
  8
Layer_1
 62
1
100
AcDbLine
 10
3.355643
 20
10.151614
 30
0.0
 11
3.361391
 21
10.145866
 31
0.0
  0
LINE
  5
137
100
AcDbEntity
  8
Layer_1
 62
1
100
AcDbLine
 10
3.361391
 20
10.145866
 30
0.0
 11
3.873516
 21
10.145866
 31
0.0
  0
LINE
  5
138
100
AcDbEntity
  8
Layer_1
 62
1
100
AcDbLine
 10
3.873516
 20
10.145866
 30
0.0
 11
3.879264
 21
10.151614
 31
0.0
  0
LINE
  5
139
100
AcDbEntity
  8
Layer_1
 62
1
100
AcDbLine
 10
3.879264
 20
10.151614
 30
0.0
 11
3.879264
 21
10.397835
 31
0.0
  0
LINE
  5
13a
100
AcDbEntity
  8
Layer_1
 62
1
100
AcDbLine
 10
3.879264
 20
10.397835
 30
0.0
 11
4.363516
 21
10.397835
 31
0.0
  0
LINE
  5
13b
100
AcDbEntity
  8
Layer_1
 62
1
100
AcDbLine
 10
4.363516
 20
10.397835
 30
0.0
 11
4.363516
 21
10.151614
 31
0.0
  0
LINE
  5
13c
100
AcDbEntity
  8
Layer_1
 62
1
100
AcDbLine
 10
4.363516
 20
10.151614
 30
0.0
 11
4.369264
 21
10.145866
 31
0.0
  0
LINE
  5
13d
100
AcDbEntity
  8
Layer_1
 62
1
100
AcDbLine
 10
4.369264
 20
10.145866
 30
0.0
 11
4.881390
 21
10.145866
 31
0.0
  0
LINE
  5
13e
100
AcDbEntity
  8
Layer_1
 62
1
100
AcDbLine
 10
4.881390
 20
10.145866
 30
0.0
 11
4.887138
 21
10.151614
 31
0.0
  0
LINE
  5
13f
100
AcDbEntity
  8
Layer_1
 62
1
100
AcDbLine
 10
4.887138
 20
10.151614
 30
0.0
 11
4.887138
 21
10.397835
 31
0.0
  0
LINE
  5
140
100
AcDbEntity
  8
Layer_1
 62
1
100
AcDbLine
 10
4.887138
 20
10.397835
 30
0.0
 11
5.371391
 21
10.397835
 31
0.0
  0
LINE
  5
141
100
AcDbEntity
  8
Layer_1
 62
1
100
AcDbLine
 10
5.371391
 20
10.397835
 30
0.0
 11
5.371391
 21
10.151614
 31
0.0
  0
LINE
  5
142
100
AcDbEntity
  8
Layer_1
 62
1
100
AcDbLine
 10
5.371391
 20
10.151614
 30
0.0
 11
5.377139
 21
10.145866
 31
0.0
  0
LINE
  5
143
100
AcDbEntity
  8
Layer_1
 62
1
100
AcDbLine
 10
5.377139
 20
10.145866
 30
0.0
 11
5.889265
 21
10.145866
 31
0.0
  0
LINE
  5
144
100
AcDbEntity
  8
Layer_1
 62
1
100
AcDbLine
 10
5.889265
 20
10.145866
 30
0.0
 11
5.895013
 21
10.151614
 31
0.0
  0
LINE
  5
145
100
AcDbEntity
  8
Layer_1
 62
1
100
AcDbLine
 10
5.895013
 20
10.151614
 30
0.0
 11
5.895013
 21
10.397835
 31
0.0
  0
LINE
  5
146
100
AcDbEntity
  8
Layer_1
 62
1
100
AcDbLine
 10
5.895013
 20
10.397835
 30
0.0
 11
6.379265
 21
10.397835
 31
0.0
  0
LINE
  5
147
100
AcDbEntity
  8
Layer_1
 62
1
100
AcDbLine
 10
6.379265
 20
10.397835
 30
0.0
 11
6.379265
 21
10.151614
 31
0.0
  0
LINE
  5
148
100
AcDbEntity
  8
Layer_1
 62
1
100
AcDbLine
 10
6.379265
 20
10.151614
 30
0.0
 11
6.385013
 21
10.145866
 31
0.0
  0
LINE
  5
149
100
AcDbEntity
  8
Layer_1
 62
1
100
AcDbLine
 10
6.385013
 20
10.145866
 30
0.0
 11
7.164856
 21
10.145866
 31
0.0
  0
LINE
  5
14a
100
AcDbEntity
  8
Layer_1
 62
1
100
AcDbLine
 10
7.164856
 20
10.145866
 30
0.0
 11
7.170604
 21
10.151614
 31
0.0
  0
LINE
  5
14b
100
AcDbEntity
  8
Layer_1
 62
1
100
AcDbLine
 10
7.170604
 20
10.151614
 30
0.0
 11
7.170604
 21
10.474764
 31
0.0
  0
LINE
  5
14c
100
AcDbEntity
  8
Layer_1
 62
1
100
AcDbLine
 10
7.170604
 20
10.474764
 30
0.0
 11
7.164856
 21
10.480512
 31
0.0
  0
LINE
  5
14d
100
AcDbEntity
  8
Layer_1
 62
1
100
AcDbLine
 10
7.164856
 20
10.480512
 30
0.0
 11
6.918635
 21
10.480512
 31
0.0
  0
LINE
  5
14e
100
AcDbEntity
  8
Layer_1
 62
1
100
AcDbLine
 10
6.918635
 20
10.480512
 30
0.0
 11
6.918635
 21
10.964764
 31
0.0
  0
LINE
  5
14f
100
AcDbEntity
  8
Layer_1
 62
1
100
AcDbLine
 10
6.918635
 20
10.964764
 30
0.0
 11
7.164856
 21
10.964764
 31
0.0
  0
LINE
  5
150
100
AcDbEntity
  8
Layer_1
 62
1
100
AcDbLine
 10
7.164856
 20
10.964764
 30
0.0
 11
7.170604
 21
10.970512
 31
0.0
  0
LINE
  5
151
100
AcDbEntity
  8
Layer_1
 62
1
100
AcDbLine
 10
7.170604
 20
10.970512
 30
0.0
 11
7.170604
 21
11.482638
 31
0.0
  0
LINE
  5
152
100
AcDbEntity
  8
Layer_1
 62
1
100
AcDbLine
 10
7.170604
 20
11.482638
 30
0.0
 11
7.164856
 21
11.488386
 31
0.0
  0
LINE
  5
153
100
AcDbEntity
  8
Layer_1
 62
1
100
AcDbLine
 10
7.164856
 20
11.488386
 30
0.0
 11
6.918635
 21
11.488386
 31
0.0
  0
LINE
  5
154
100
AcDbEntity
  8
Layer_1
 62
1
100
AcDbLine
 10
6.918635
 20
11.488386
 30
0.0
 11
6.918635
 21
11.972638
 31
0.0
  0
LINE
  5
155
100
AcDbEntity
  8
Layer_1
 62
1
100
AcDbLine
 10
6.918635
 20
11.972638
 30
0.0
 11
7.164856
 21
11.972638
 31
0.0
  0
LINE
  5
156
100
AcDbEntity
  8
Layer_1
 62
1
100
AcDbLine
 10
7.164856
 20
11.972638
 30
0.0
 11
7.170604
 21
11.978386
 31
0.0
  0
LINE
  5
157
100
AcDbEntity
  8
Layer_1
 62
1
100
AcDbLine
 10
7.170604
 20
11.978386
 30
0.0
 11
7.170604
 21
12.490512
 31
0.0
  0
LINE
  5
158
100
AcDbEntity
  8
Layer_1
 62
1
100
AcDbLine
 10
7.170604
 20
12.490512
 30
0.0
 11
7.164856
 21
12.496260
 31
0.0
  0
LINE
  5
159
100
AcDbEntity
  8
Layer_1
 62
1
100
AcDbLine
 10
7.164856
 20
12.496260
 30
0.0
 11
6.918635
 21
12.496260
 31
0.0
  0
LINE
  5
15a
100
AcDbEntity
  8
Layer_1
 62
1
100
AcDbLine
 10
6.918635
 20
12.496260
 30
0.0
 11
6.918635
 21
12.980512
 31
0.0
  0
LINE
  5
15b
100
AcDbEntity
  8
Layer_1
 62
1
100
AcDbLine
 10
6.918635
 20
12.980512
 30
0.0
 11
7.164856
 21
12.980512
 31
0.0
  0
LINE
  5
15c
100
AcDbEntity
  8
Layer_1
 62
1
100
AcDbLine
 10
7.164856
 20
12.980512
 30
0.0
 11
7.170604
 21
12.986260
 31
0.0
  0
LINE
  5
15d
100
AcDbEntity
  8
Layer_1
 62
1
100
AcDbLine
 10
7.170604
 20
12.986260
 30
0.0
 11
7.170604
 21
13.309409
 31
0.0
  0
LINE
  5
15e
100
AcDbEntity
  8
Layer_1
 62
1
100
AcDbLine
 10
7.170604
 20
13.309409
 30
0.0
 11
7.164856
 21
13.315157
 31
0.0
  0
LINE
  5
15f
100
AcDbEntity
  8
Layer_1
 62
1
100
AcDbLine
 10
7.164856
 20
13.315157
 30
0.0
 11
0.070053
 21
13.315157
 31
0.0
  0
LINE
  5
160
100
AcDbEntity
  8
Layer_1
 62
1
100
AcDbLine
 10
0.070053
 20
13.315157
 30
0.0
 11
0.064305
 21
13.309409
 31
0.0
  0
LINE
  5
161
100
AcDbEntity
  8
Layer_1
 62
1
100
AcDbLine
 10
0.064305
 20
13.309409
 30
0.0
 11
0.064305
 21
12.986260
 31
0.0
  0
LINE
  5
162
100
AcDbEntity
  8
Layer_1
 62
1
100
AcDbLine
 10
0.064305
 20
12.986260
 30
0.0
 11
0.070053
 21
12.980512
 31
0.0
  0
LINE
  5
163
100
AcDbEntity
  8
Layer_1
 62
1
100
AcDbLine
 10
0.070053
 20
12.980512
 30
0.0
 11
0.316273
 21
12.980512
 31
0.0
  0
LINE
  5
164
100
AcDbEntity
  8
Layer_1
 62
1
100
AcDbLine
 10
0.316273
 20
12.980512
 30
0.0
 11
0.316273
 21
12.496260
 31
0.0
  0
LINE
  5
165
100
AcDbEntity
  8
Layer_1
 62
1
100
AcDbLine
 10
0.316273
 20
12.496260
 30
0.0
 11
0.070053
 21
12.496260
 31
0.0
  0
LINE
  5
166
100
AcDbEntity
  8
Layer_1
 62
1
100
AcDbLine
 10
0.070053
 20
12.496260
 30
0.0
 11
0.064305
 21
12.490512
 31
0.0
  0
LINE
  5
167
100
AcDbEntity
  8
Layer_1
 62
1
100
AcDbLine
 10
0.064305
 20
12.490512
 30
0.0
 11
0.064305
 21
11.978386
 31
0.0
  0
LINE
  5
168
100
AcDbEntity
  8
Layer_1
 62
1
100
AcDbLine
 10
0.064305
 20
11.978386
 30
0.0
 11
0.070053
 21
11.972638
 31
0.0
  0
LINE
  5
169
100
AcDbEntity
  8
Layer_1
 62
1
100
AcDbLine
 10
0.070053
 20
11.972638
 30
0.0
 11
0.316273
 21
11.972638
 31
0.0
  0
LINE
  5
16a
100
AcDbEntity
  8
Layer_1
 62
1
100
AcDbLine
 10
0.316273
 20
11.972638
 30
0.0
 11
0.316273
 21
11.488386
 31
0.0
  0
LINE
  5
16b
100
AcDbEntity
  8
Layer_1
 62
1
100
AcDbLine
 10
0.316273
 20
11.488386
 30
0.0
 11
0.070053
 21
11.488386
 31
0.0
  0
LINE
  5
16c
100
AcDbEntity
  8
Layer_1
 62
1
100
AcDbLine
 10
0.070053
 20
11.488386
 30
0.0
 11
0.064305
 21
11.482638
 31
0.0
  0
LINE
  5
16d
100
AcDbEntity
  8
Layer_1
 62
1
100
AcDbLine
 10
0.064305
 20
11.482638
 30
0.0
 11
0.064305
 21
10.970512
 31
0.0
  0
LINE
  5
16e
100
AcDbEntity
  8
Layer_1
 62
1
100
AcDbLine
 10
0.064305
 20
10.970512
 30
0.0
 11
0.070053
 21
10.964764
 31
0.0
  0
LINE
  5
16f
100
AcDbEntity
  8
Layer_1
 62
1
100
AcDbLine
 10
0.070053
 20
10.964764
 30
0.0
 11
0.316273
 21
10.964764
 31
0.0
  0
LINE
  5
170
100
AcDbEntity
  8
Layer_1
 62
1
100
AcDbLine
 10
0.316273
 20
10.964764
 30
0.0
 11
0.316273
 21
10.480512
 31
0.0
  0
LINE
  5
171
100
AcDbEntity
  8
Layer_1
 62
1
100
AcDbLine
 10
0.316273
 20
10.480512
 30
0.0
 11
0.070053
 21
10.480512
 31
0.0
  0
LINE
  5
172
100
AcDbEntity
  8
Layer_1
 62
1
100
AcDbLine
 10
0.070053
 20
10.480512
 30
0.0
 11
0.064305
 21
10.474764
 31
0.0
  0
LINE
  5
173
100
AcDbEntity
  8
Layer_1
 62
1
100
AcDbLine
 10
0.064305
 20
10.474764
 30
0.0
 11
0.064305
 21
10.151614
 31
0.0
  0
LINE
  5
174
100
AcDbEntity
  8
Layer_1
 62
1
100
AcDbLine
 10
0.064305
 20
10.151614
 30
0.0
 11
0.070053
 21
10.145866
 31
0.0
  0
LINE
  5
175
100
AcDbEntity
  8
Layer_1
 62
1
100
AcDbLine
 10
0.070053
 20
10.145866
 30
0.0
 11
0.849895
 21
10.145866
 31
0.0
  0
LINE
  5
176
100
AcDbEntity
  8
Layer_1
 62
1
100
AcDbLine
 10
0.849895
 20
10.145866
 30
0.0
 11
0.855643
 21
10.151614
 31
0.0
  0
LINE
  5
177
100
AcDbEntity
  8
Layer_1
 62
1
100
AcDbLine
 10
8.143045
 20
10.151614
 30
0.0
 11
8.143045
 21
10.397835
 31
0.0
  0
LINE
  5
178
100
AcDbEntity
  8
Layer_1
 62
1
100
AcDbLine
 10
8.143045
 20
10.397835
 30
0.0
 11
8.627297
 21
10.397835
 31
0.0
  0
LINE
  5
179
100
AcDbEntity
  8
Layer_1
 62
1
100
AcDbLine
 10
8.627297
 20
10.397835
 30
0.0
 11
8.627297
 21
10.151614
 31
0.0
  0
LINE
  5
17a
100
AcDbEntity
  8
Layer_1
 62
1
100
AcDbLine
 10
8.627297
 20
10.151614
 30
0.0
 11
8.633045
 21
10.145866
 31
0.0
  0
LINE
  5
17b
100
AcDbEntity
  8
Layer_1
 62
1
100
AcDbLine
 10
8.633045
 20
10.145866
 30
0.0
 11
9.145171
 21
10.145866
 31
0.0
  0
LINE
  5
17c
100
AcDbEntity
  8
Layer_1
 62
1
100
AcDbLine
 10
9.145171
 20
10.145866
 30
0.0
 11
9.150919
 21
10.151614
 31
0.0
  0
LINE
  5
17d
100
AcDbEntity
  8
Layer_1
 62
1
100
AcDbLine
 10
9.150919
 20
10.151614
 30
0.0
 11
9.150919
 21
10.397835
 31
0.0
  0
LINE
  5
17e
100
AcDbEntity
  8
Layer_1
 62
1
100
AcDbLine
 10
9.150919
 20
10.397835
 30
0.0
 11
9.635171
 21
10.397835
 31
0.0
  0
LINE
  5
17f
100
AcDbEntity
  8
Layer_1
 62
1
100
AcDbLine
 10
9.635171
 20
10.397835
 30
0.0
 11
9.635171
 21
10.151614
 31
0.0
  0
LINE
  5
180
100
AcDbEntity
  8
Layer_1
 62
1
100
AcDbLine
 10
9.635171
 20
10.151614
 30
0.0
 11
9.640919
 21
10.145866
 31
0.0
  0
LINE
  5
181
100
AcDbEntity
  8
Layer_1
 62
1
100
AcDbLine
 10
9.640919
 20
10.145866
 30
0.0
 11
10.153045
 21
10.145866
 31
0.0
  0
LINE
  5
182
100
AcDbEntity
  8
Layer_1
 62
1
100
AcDbLine
 10
10.153045
 20
10.145866
 30
0.0
 11
10.158793
 21
10.151614
 31
0.0
  0
LINE
  5
183
100
AcDbEntity
  8
Layer_1
 62
1
100
AcDbLine
 10
10.158793
 20
10.151614
 30
0.0
 11
10.158793
 21
10.397835
 31
0.0
  0
LINE
  5
184
100
AcDbEntity
  8
Layer_1
 62
1
100
AcDbLine
 10
10.158793
 20
10.397835
 30
0.0
 11
10.643045
 21
10.397835
 31
0.0
  0
LINE
  5
185
100
AcDbEntity
  8
Layer_1
 62
1
100
AcDbLine
 10
10.643045
 20
10.397835
 30
0.0
 11
10.643045
 21
10.151614
 31
0.0
  0
LINE
  5
186
100
AcDbEntity
  8
Layer_1
 62
1
100
AcDbLine
 10
10.643045
 20
10.151614
 30
0.0
 11
10.648793
 21
10.145866
 31
0.0
  0
LINE
  5
187
100
AcDbEntity
  8
Layer_1
 62
1
100
AcDbLine
 10
10.648793
 20
10.145866
 30
0.0
 11
11.160919
 21
10.145866
 31
0.0
  0
LINE
  5
188
100
AcDbEntity
  8
Layer_1
 62
1
100
AcDbLine
 10
11.160919
 20
10.145866
 30
0.0
 11
11.166667
 21
10.151614
 31
0.0
  0
LINE
  5
189
100
AcDbEntity
  8
Layer_1
 62
1
100
AcDbLine
 10
11.166667
 20
10.151614
 30
0.0
 11
11.166667
 21
10.397835
 31
0.0
  0
LINE
  5
18a
100
AcDbEntity
  8
Layer_1
 62
1
100
AcDbLine
 10
11.166667
 20
10.397835
 30
0.0
 11
11.650919
 21
10.397835
 31
0.0
  0
LINE
  5
18b
100
AcDbEntity
  8
Layer_1
 62
1
100
AcDbLine
 10
11.650919
 20
10.397835
 30
0.0
 11
11.650919
 21
10.151614
 31
0.0
  0
LINE
  5
18c
100
AcDbEntity
  8
Layer_1
 62
1
100
AcDbLine
 10
11.650919
 20
10.151614
 30
0.0
 11
11.656667
 21
10.145866
 31
0.0
  0
LINE
  5
18d
100
AcDbEntity
  8
Layer_1
 62
1
100
AcDbLine
 10
11.656667
 20
10.145866
 30
0.0
 11
12.168793
 21
10.145866
 31
0.0
  0
LINE
  5
18e
100
AcDbEntity
  8
Layer_1
 62
1
100
AcDbLine
 10
12.168793
 20
10.145866
 30
0.0
 11
12.174541
 21
10.151614
 31
0.0
  0
LINE
  5
18f
100
AcDbEntity
  8
Layer_1
 62
1
100
AcDbLine
 10
12.174541
 20
10.151614
 30
0.0
 11
12.174541
 21
10.397835
 31
0.0
  0
LINE
  5
190
100
AcDbEntity
  8
Layer_1
 62
1
100
AcDbLine
 10
12.174541
 20
10.397835
 30
0.0
 11
12.658793
 21
10.397835
 31
0.0
  0
LINE
  5
191
100
AcDbEntity
  8
Layer_1
 62
1
100
AcDbLine
 10
12.658793
 20
10.397835
 30
0.0
 11
12.658793
 21
10.151614
 31
0.0
  0
LINE
  5
192
100
AcDbEntity
  8
Layer_1
 62
1
100
AcDbLine
 10
12.658793
 20
10.151614
 30
0.0
 11
12.664541
 21
10.145866
 31
0.0
  0
LINE
  5
193
100
AcDbEntity
  8
Layer_1
 62
1
100
AcDbLine
 10
12.664541
 20
10.145866
 30
0.0
 11
13.176667
 21
10.145866
 31
0.0
  0
LINE
  5
194
100
AcDbEntity
  8
Layer_1
 62
1
100
AcDbLine
 10
13.176667
 20
10.145866
 30
0.0
 11
13.182415
 21
10.151614
 31
0.0
  0
LINE
  5
195
100
AcDbEntity
  8
Layer_1
 62
1
100
AcDbLine
 10
13.182415
 20
10.151614
 30
0.0
 11
13.182415
 21
10.397835
 31
0.0
  0
LINE
  5
196
100
AcDbEntity
  8
Layer_1
 62
1
100
AcDbLine
 10
13.182415
 20
10.397835
 30
0.0
 11
13.666667
 21
10.397835
 31
0.0
  0
LINE
  5
197
100
AcDbEntity
  8
Layer_1
 62
1
100
AcDbLine
 10
13.666667
 20
10.397835
 30
0.0
 11
13.666667
 21
10.151614
 31
0.0
  0
LINE
  5
198
100
AcDbEntity
  8
Layer_1
 62
1
100
AcDbLine
 10
13.666667
 20
10.151614
 30
0.0
 11
13.672415
 21
10.145866
 31
0.0
  0
LINE
  5
199
100
AcDbEntity
  8
Layer_1
 62
1
100
AcDbLine
 10
13.672415
 20
10.145866
 30
0.0
 11
14.184541
 21
10.145866
 31
0.0
  0
LINE
  5
19a
100
AcDbEntity
  8
Layer_1
 62
1
100
AcDbLine
 10
14.184541
 20
10.145866
 30
0.0
 11
14.190289
 21
10.151614
 31
0.0
  0
LINE
  5
19b
100
AcDbEntity
  8
Layer_1
 62
1
100
AcDbLine
 10
14.190289
 20
10.151614
 30
0.0
 11
14.190289
 21
10.397835
 31
0.0
  0
LINE
  5
19c
100
AcDbEntity
  8
Layer_1
 62
1
100
AcDbLine
 10
14.190289
 20
10.397835
 30
0.0
 11
14.674541
 21
10.397835
 31
0.0
  0
LINE
  5
19d
100
AcDbEntity
  8
Layer_1
 62
1
100
AcDbLine
 10
14.674541
 20
10.397835
 30
0.0
 11
14.674541
 21
10.151614
 31
0.0
  0
LINE
  5
19e
100
AcDbEntity
  8
Layer_1
 62
1
100
AcDbLine
 10
14.674541
 20
10.151614
 30
0.0
 11
14.680289
 21
10.145866
 31
0.0
  0
LINE
  5
19f
100
AcDbEntity
  8
Layer_1
 62
1
100
AcDbLine
 10
14.680289
 20
10.145866
 30
0.0
 11
15.192415
 21
10.145866
 31
0.0
  0
LINE
  5
1a0
100
AcDbEntity
  8
Layer_1
 62
1
100
AcDbLine
 10
15.192415
 20
10.145866
 30
0.0
 11
15.198163
 21
10.151614
 31
0.0
  0
LINE
  5
1a1
100
AcDbEntity
  8
Layer_1
 62
1
100
AcDbLine
 10
15.198163
 20
10.151614
 30
0.0
 11
15.198163
 21
10.397835
 31
0.0
  0
LINE
  5
1a2
100
AcDbEntity
  8
Layer_1
 62
1
100
AcDbLine
 10
15.198163
 20
10.397835
 30
0.0
 11
15.682415
 21
10.397835
 31
0.0
  0
LINE
  5
1a3
100
AcDbEntity
  8
Layer_1
 62
1
100
AcDbLine
 10
15.682415
 20
10.397835
 30
0.0
 11
15.682415
 21
10.151614
 31
0.0
  0
LINE
  5
1a4
100
AcDbEntity
  8
Layer_1
 62
1
100
AcDbLine
 10
15.682415
 20
10.151614
 30
0.0
 11
15.688163
 21
10.145866
 31
0.0
  0
LINE
  5
1a5
100
AcDbEntity
  8
Layer_1
 62
1
100
AcDbLine
 10
15.688163
 20
10.145866
 30
0.0
 11
16.200289
 21
10.145866
 31
0.0
  0
LINE
  5
1a6
100
AcDbEntity
  8
Layer_1
 62
1
100
AcDbLine
 10
16.200289
 20
10.145866
 30
0.0
 11
16.206037
 21
10.151614
 31
0.0
  0
LINE
  5
1a7
100
AcDbEntity
  8
Layer_1
 62
1
100
AcDbLine
 10
16.206037
 20
10.151614
 30
0.0
 11
16.206037
 21
10.397835
 31
0.0
  0
LINE
  5
1a8
100
AcDbEntity
  8
Layer_1
 62
1
100
AcDbLine
 10
16.206037
 20
10.397835
 30
0.0
 11
16.690289
 21
10.397835
 31
0.0
  0
LINE
  5
1a9
100
AcDbEntity
  8
Layer_1
 62
1
100
AcDbLine
 10
16.690289
 20
10.397835
 30
0.0
 11
16.690289
 21
10.151614
 31
0.0
  0
LINE
  5
1aa
100
AcDbEntity
  8
Layer_1
 62
1
100
AcDbLine
 10
16.690289
 20
10.151614
 30
0.0
 11
16.696037
 21
10.145866
 31
0.0
  0
LINE
  5
1ab
100
AcDbEntity
  8
Layer_1
 62
1
100
AcDbLine
 10
16.696037
 20
10.145866
 30
0.0
 11
17.286903
 21
10.145866
 31
0.0
  0
LINE
  5
1ac
100
AcDbEntity
  8
Layer_1
 62
1
100
AcDbLine
 10
17.286903
 20
10.145866
 30
0.0
 11
17.292651
 21
10.151614
 31
0.0
  0
LINE
  5
1ad
100
AcDbEntity
  8
Layer_1
 62
1
100
AcDbLine
 10
17.292651
 20
10.151614
 30
0.0
 11
17.292651
 21
10.460827
 31
0.0
  0
LINE
  5
1ae
100
AcDbEntity
  8
Layer_1
 62
1
100
AcDbLine
 10
17.292651
 20
10.460827
 30
0.0
 11
17.538872
 21
10.460827
 31
0.0
  0
LINE
  5
1af
100
AcDbEntity
  8
Layer_1
 62
1
100
AcDbLine
 10
17.538872
 20
10.460827
 30
0.0
 11
17.544620
 21
10.466575
 31
0.0
  0
LINE
  5
1b0
100
AcDbEntity
  8
Layer_1
 62
1
100
AcDbLine
 10
17.544620
 20
10.466575
 30
0.0
 11
17.544620
 21
10.978701
 31
0.0
  0
LINE
  5
1b1
100
AcDbEntity
  8
Layer_1
 62
1
100
AcDbLine
 10
17.544620
 20
10.978701
 30
0.0
 11
17.538872
 21
10.984449
 31
0.0
  0
LINE
  5
1b2
100
AcDbEntity
  8
Layer_1
 62
1
100
AcDbLine
 10
17.538872
 20
10.984449
 30
0.0
 11
17.292651
 21
10.984449
 31
0.0
  0
LINE
  5
1b3
100
AcDbEntity
  8
Layer_1
 62
1
100
AcDbLine
 10
17.292651
 20
10.984449
 30
0.0
 11
17.292651
 21
11.468701
 31
0.0
  0
LINE
  5
1b4
100
AcDbEntity
  8
Layer_1
 62
1
100
AcDbLine
 10
17.292651
 20
11.468701
 30
0.0
 11
17.538872
 21
11.468701
 31
0.0
  0
LINE
  5
1b5
100
AcDbEntity
  8
Layer_1
 62
1
100
AcDbLine
 10
17.538872
 20
11.468701
 30
0.0
 11
17.544620
 21
11.474449
 31
0.0
  0
LINE
  5
1b6
100
AcDbEntity
  8
Layer_1
 62
1
100
AcDbLine
 10
17.544620
 20
11.474449
 30
0.0
 11
17.544620
 21
11.986575
 31
0.0
  0
LINE
  5
1b7
100
AcDbEntity
  8
Layer_1
 62
1
100
AcDbLine
 10
17.544620
 20
11.986575
 30
0.0
 11
17.538872
 21
11.992323
 31
0.0
  0
LINE
  5
1b8
100
AcDbEntity
  8
Layer_1
 62
1
100
AcDbLine
 10
17.538872
 20
11.992323
 30
0.0
 11
17.292651
 21
11.992323
 31
0.0
  0
LINE
  5
1b9
100
AcDbEntity
  8
Layer_1
 62
1
100
AcDbLine
 10
17.292651
 20
11.992323
 30
0.0
 11
17.292651
 21
12.476575
 31
0.0
  0
LINE
  5
1ba
100
AcDbEntity
  8
Layer_1
 62
1
100
AcDbLine
 10
17.292651
 20
12.476575
 30
0.0
 11
17.538872
 21
12.476575
 31
0.0
  0
LINE
  5
1bb
100
AcDbEntity
  8
Layer_1
 62
1
100
AcDbLine
 10
17.538872
 20
12.476575
 30
0.0
 11
17.544620
 21
12.482323
 31
0.0
  0
LINE
  5
1bc
100
AcDbEntity
  8
Layer_1
 62
1
100
AcDbLine
 10
17.544620
 20
12.482323
 30
0.0
 11
17.544620
 21
12.994449
 31
0.0
  0
LINE
  5
1bd
100
AcDbEntity
  8
Layer_1
 62
1
100
AcDbLine
 10
17.544620
 20
12.994449
 30
0.0
 11
17.538872
 21
13.000197
 31
0.0
  0
LINE
  5
1be
100
AcDbEntity
  8
Layer_1
 62
1
100
AcDbLine
 10
17.538872
 20
13.000197
 30
0.0
 11
17.292651
 21
13.000197
 31
0.0
  0
LINE
  5
1bf
100
AcDbEntity
  8
Layer_1
 62
1
100
AcDbLine
 10
17.292651
 20
13.000197
 30
0.0
 11
17.292651
 21
13.309409
 31
0.0
  0
LINE
  5
1c0
100
AcDbEntity
  8
Layer_1
 62
1
100
AcDbLine
 10
17.292651
 20
13.309409
 30
0.0
 11
17.286903
 21
13.315157
 31
0.0
  0
LINE
  5
1c1
100
AcDbEntity
  8
Layer_1
 62
1
100
AcDbLine
 10
17.286903
 20
13.315157
 30
0.0
 11
7.546431
 21
13.315157
 31
0.0
  0
LINE
  5
1c2
100
AcDbEntity
  8
Layer_1
 62
1
100
AcDbLine
 10
7.546431
 20
13.315157
 30
0.0
 11
7.540683
 21
13.309409
 31
0.0
  0
LINE
  5
1c3
100
AcDbEntity
  8
Layer_1
 62
1
100
AcDbLine
 10
7.540683
 20
13.309409
 30
0.0
 11
7.540683
 21
13.000197
 31
0.0
  0
LINE
  5
1c4
100
AcDbEntity
  8
Layer_1
 62
1
100
AcDbLine
 10
7.540683
 20
13.000197
 30
0.0
 11
7.294462
 21
13.000197
 31
0.0
  0
LINE
  5
1c5
100
AcDbEntity
  8
Layer_1
 62
1
100
AcDbLine
 10
7.294462
 20
13.000197
 30
0.0
 11
7.288714
 21
12.994449
 31
0.0
  0
LINE
  5
1c6
100
AcDbEntity
  8
Layer_1
 62
1
100
AcDbLine
 10
7.288714
 20
12.994449
 30
0.0
 11
7.288714
 21
12.482323
 31
0.0
  0
LINE
  5
1c7
100
AcDbEntity
  8
Layer_1
 62
1
100
AcDbLine
 10
7.288714
 20
12.482323
 30
0.0
 11
7.294462
 21
12.476575
 31
0.0
  0
LINE
  5
1c8
100
AcDbEntity
  8
Layer_1
 62
1
100
AcDbLine
 10
7.294462
 20
12.476575
 30
0.0
 11
7.540683
 21
12.476575
 31
0.0
  0
LINE
  5
1c9
100
AcDbEntity
  8
Layer_1
 62
1
100
AcDbLine
 10
7.540683
 20
12.476575
 30
0.0
 11
7.540683
 21
11.992323
 31
0.0
  0
LINE
  5
1ca
100
AcDbEntity
  8
Layer_1
 62
1
100
AcDbLine
 10
7.540683
 20
11.992323
 30
0.0
 11
7.294462
 21
11.992323
 31
0.0
  0
LINE
  5
1cb
100
AcDbEntity
  8
Layer_1
 62
1
100
AcDbLine
 10
7.294462
 20
11.992323
 30
0.0
 11
7.288714
 21
11.986575
 31
0.0
  0
LINE
  5
1cc
100
AcDbEntity
  8
Layer_1
 62
1
100
AcDbLine
 10
7.288714
 20
11.986575
 30
0.0
 11
7.288714
 21
11.474449
 31
0.0
  0
LINE
  5
1cd
100
AcDbEntity
  8
Layer_1
 62
1
100
AcDbLine
 10
7.288714
 20
11.474449
 30
0.0
 11
7.294462
 21
11.468701
 31
0.0
  0
LINE
  5
1ce
100
AcDbEntity
  8
Layer_1
 62
1
100
AcDbLine
 10
7.294462
 20
11.468701
 30
0.0
 11
7.540683
 21
11.468701
 31
0.0
  0
LINE
  5
1cf
100
AcDbEntity
  8
Layer_1
 62
1
100
AcDbLine
 10
7.540683
 20
11.468701
 30
0.0
 11
7.540683
 21
10.984449
 31
0.0
  0
LINE
  5
1d0
100
AcDbEntity
  8
Layer_1
 62
1
100
AcDbLine
 10
7.540683
 20
10.984449
 30
0.0
 11
7.294462
 21
10.984449
 31
0.0
  0
LINE
  5
1d1
100
AcDbEntity
  8
Layer_1
 62
1
100
AcDbLine
 10
7.294462
 20
10.984449
 30
0.0
 11
7.288714
 21
10.978701
 31
0.0
  0
LINE
  5
1d2
100
AcDbEntity
  8
Layer_1
 62
1
100
AcDbLine
 10
7.288714
 20
10.978701
 30
0.0
 11
7.288714
 21
10.466575
 31
0.0
  0
LINE
  5
1d3
100
AcDbEntity
  8
Layer_1
 62
1
100
AcDbLine
 10
7.288714
 20
10.466575
 30
0.0
 11
7.294462
 21
10.460827
 31
0.0
  0
LINE
  5
1d4
100
AcDbEntity
  8
Layer_1
 62
1
100
AcDbLine
 10
7.294462
 20
10.460827
 30
0.0
 11
7.540683
 21
10.460827
 31
0.0
  0
LINE
  5
1d5
100
AcDbEntity
  8
Layer_1
 62
1
100
AcDbLine
 10
7.540683
 20
10.460827
 30
0.0
 11
7.540683
 21
10.151614
 31
0.0
  0
LINE
  5
1d6
100
AcDbEntity
  8
Layer_1
 62
1
100
AcDbLine
 10
7.540683
 20
10.151614
 30
0.0
 11
7.546431
 21
10.145866
 31
0.0
  0
LINE
  5
1d7
100
AcDbEntity
  8
Layer_1
 62
1
100
AcDbLine
 10
7.546431
 20
10.145866
 30
0.0
 11
8.137297
 21
10.145866
 31
0.0
  0
LINE
  5
1d8
100
AcDbEntity
  8
Layer_1
 62
1
100
AcDbLine
 10
8.137297
 20
10.145866
 30
0.0
 11
8.143045
 21
10.151614
 31
0.0
  0
LINE
  5
1d9
100
AcDbEntity
  8
Layer_1
 62
1
100
AcDbLine
 10
0.855643
 20
13.439016
 30
0.0
 11
0.855643
 21
13.685236
 31
0.0
  0
LINE
  5
1da
100
AcDbEntity
  8
Layer_1
 62
1
100
AcDbLine
 10
0.855643
 20
13.685236
 30
0.0
 11
1.339895
 21
13.685236
 31
0.0
  0
LINE
  5
1db
100
AcDbEntity
  8
Layer_1
 62
1
100
AcDbLine
 10
1.339895
 20
13.685236
 30
0.0
 11
1.339895
 21
13.439016
 31
0.0
  0
LINE
  5
1dc
100
AcDbEntity
  8
Layer_1
 62
1
100
AcDbLine
 10
1.339895
 20
13.439016
 30
0.0
 11
1.345643
 21
13.433268
 31
0.0
  0
LINE
  5
1dd
100
AcDbEntity
  8
Layer_1
 62
1
100
AcDbLine
 10
1.345643
 20
13.433268
 30
0.0
 11
1.857769
 21
13.433268
 31
0.0
  0
LINE
  5
1de
100
AcDbEntity
  8
Layer_1
 62
1
100
AcDbLine
 10
1.857769
 20
13.433268
 30
0.0
 11
1.863517
 21
13.439016
 31
0.0
  0
LINE
  5
1df
100
AcDbEntity
  8
Layer_1
 62
1
100
AcDbLine
 10
1.863517
 20
13.439016
 30
0.0
 11
1.863517
 21
13.685236
 31
0.0
  0
LINE
  5
1e0
100
AcDbEntity
  8
Layer_1
 62
1
100
AcDbLine
 10
1.863517
 20
13.685236
 30
0.0
 11
2.347769
 21
13.685236
 31
0.0
  0
LINE
  5
1e1
100
AcDbEntity
  8
Layer_1
 62
1
100
AcDbLine
 10
2.347769
 20
13.685236
 30
0.0
 11
2.347769
 21
13.439016
 31
0.0
  0
LINE
  5
1e2
100
AcDbEntity
  8
Layer_1
 62
1
100
AcDbLine
 10
2.347769
 20
13.439016
 30
0.0
 11
2.353517
 21
13.433268
 31
0.0
  0
LINE
  5
1e3
100
AcDbEntity
  8
Layer_1
 62
1
100
AcDbLine
 10
2.353517
 20
13.433268
 30
0.0
 11
2.865643
 21
13.433268
 31
0.0
  0
LINE
  5
1e4
100
AcDbEntity
  8
Layer_1
 62
1
100
AcDbLine
 10
2.865643
 20
13.433268
 30
0.0
 11
2.871391
 21
13.439016
 31
0.0
  0
LINE
  5
1e5
100
AcDbEntity
  8
Layer_1
 62
1
100
AcDbLine
 10
2.871391
 20
13.439016
 30
0.0
 11
2.871391
 21
13.685236
 31
0.0
  0
LINE
  5
1e6
100
AcDbEntity
  8
Layer_1
 62
1
100
AcDbLine
 10
2.871391
 20
13.685236
 30
0.0
 11
3.355643
 21
13.685236
 31
0.0
  0
LINE
  5
1e7
100
AcDbEntity
  8
Layer_1
 62
1
100
AcDbLine
 10
3.355643
 20
13.685236
 30
0.0
 11
3.355643
 21
13.439016
 31
0.0
  0
LINE
  5
1e8
100
AcDbEntity
  8
Layer_1
 62
1
100
AcDbLine
 10
3.355643
 20
13.439016
 30
0.0
 11
3.361391
 21
13.433268
 31
0.0
  0
LINE
  5
1e9
100
AcDbEntity
  8
Layer_1
 62
1
100
AcDbLine
 10
3.361391
 20
13.433268
 30
0.0
 11
3.873516
 21
13.433268
 31
0.0
  0
LINE
  5
1ea
100
AcDbEntity
  8
Layer_1
 62
1
100
AcDbLine
 10
3.873516
 20
13.433268
 30
0.0
 11
3.879264
 21
13.439016
 31
0.0
  0
LINE
  5
1eb
100
AcDbEntity
  8
Layer_1
 62
1
100
AcDbLine
 10
3.879264
 20
13.439016
 30
0.0
 11
3.879264
 21
13.685236
 31
0.0
  0
LINE
  5
1ec
100
AcDbEntity
  8
Layer_1
 62
1
100
AcDbLine
 10
3.879264
 20
13.685236
 30
0.0
 11
4.363516
 21
13.685236
 31
0.0
  0
LINE
  5
1ed
100
AcDbEntity
  8
Layer_1
 62
1
100
AcDbLine
 10
4.363516
 20
13.685236
 30
0.0
 11
4.363516
 21
13.439016
 31
0.0
  0
LINE
  5
1ee
100
AcDbEntity
  8
Layer_1
 62
1
100
AcDbLine
 10
4.363516
 20
13.439016
 30
0.0
 11
4.369264
 21
13.433268
 31
0.0
  0
LINE
  5
1ef
100
AcDbEntity
  8
Layer_1
 62
1
100
AcDbLine
 10
4.369264
 20
13.433268
 30
0.0
 11
4.881390
 21
13.433268
 31
0.0
  0
LINE
  5
1f0
100
AcDbEntity
  8
Layer_1
 62
1
100
AcDbLine
 10
4.881390
 20
13.433268
 30
0.0
 11
4.887138
 21
13.439016
 31
0.0
  0
LINE
  5
1f1
100
AcDbEntity
  8
Layer_1
 62
1
100
AcDbLine
 10
4.887138
 20
13.439016
 30
0.0
 11
4.887138
 21
13.685236
 31
0.0
  0
LINE
  5
1f2
100
AcDbEntity
  8
Layer_1
 62
1
100
AcDbLine
 10
4.887138
 20
13.685236
 30
0.0
 11
5.371391
 21
13.685236
 31
0.0
  0
LINE
  5
1f3
100
AcDbEntity
  8
Layer_1
 62
1
100
AcDbLine
 10
5.371391
 20
13.685236
 30
0.0
 11
5.371391
 21
13.439016
 31
0.0
  0
LINE
  5
1f4
100
AcDbEntity
  8
Layer_1
 62
1
100
AcDbLine
 10
5.371391
 20
13.439016
 30
0.0
 11
5.377139
 21
13.433268
 31
0.0
  0
LINE
  5
1f5
100
AcDbEntity
  8
Layer_1
 62
1
100
AcDbLine
 10
5.377139
 20
13.433268
 30
0.0
 11
5.889265
 21
13.433268
 31
0.0
  0
LINE
  5
1f6
100
AcDbEntity
  8
Layer_1
 62
1
100
AcDbLine
 10
5.889265
 20
13.433268
 30
0.0
 11
5.895013
 21
13.439016
 31
0.0
  0
LINE
  5
1f7
100
AcDbEntity
  8
Layer_1
 62
1
100
AcDbLine
 10
5.895013
 20
13.439016
 30
0.0
 11
5.895013
 21
13.685236
 31
0.0
  0
LINE
  5
1f8
100
AcDbEntity
  8
Layer_1
 62
1
100
AcDbLine
 10
5.895013
 20
13.685236
 30
0.0
 11
6.379265
 21
13.685236
 31
0.0
  0
LINE
  5
1f9
100
AcDbEntity
  8
Layer_1
 62
1
100
AcDbLine
 10
6.379265
 20
13.685236
 30
0.0
 11
6.379265
 21
13.439016
 31
0.0
  0
LINE
  5
1fa
100
AcDbEntity
  8
Layer_1
 62
1
100
AcDbLine
 10
6.379265
 20
13.439016
 30
0.0
 11
6.385013
 21
13.433268
 31
0.0
  0
LINE
  5
1fb
100
AcDbEntity
  8
Layer_1
 62
1
100
AcDbLine
 10
6.385013
 20
13.433268
 30
0.0
 11
7.164856
 21
13.433268
 31
0.0
  0
LINE
  5
1fc
100
AcDbEntity
  8
Layer_1
 62
1
100
AcDbLine
 10
7.164856
 20
13.433268
 30
0.0
 11
7.170604
 21
13.439016
 31
0.0
  0
LINE
  5
1fd
100
AcDbEntity
  8
Layer_1
 62
1
100
AcDbLine
 10
7.170604
 20
13.439016
 30
0.0
 11
7.170604
 21
13.762165
 31
0.0
  0
LINE
  5
1fe
100
AcDbEntity
  8
Layer_1
 62
1
100
AcDbLine
 10
7.170604
 20
13.762165
 30
0.0
 11
7.164856
 21
13.767913
 31
0.0
  0
LINE
  5
1ff
100
AcDbEntity
  8
Layer_1
 62
1
100
AcDbLine
 10
7.164856
 20
13.767913
 30
0.0
 11
6.918635
 21
13.767913
 31
0.0
  0
LINE
  5
200
100
AcDbEntity
  8
Layer_1
 62
1
100
AcDbLine
 10
6.918635
 20
13.767913
 30
0.0
 11
6.918635
 21
14.252165
 31
0.0
  0
LINE
  5
201
100
AcDbEntity
  8
Layer_1
 62
1
100
AcDbLine
 10
6.918635
 20
14.252165
 30
0.0
 11
7.164856
 21
14.252165
 31
0.0
  0
LINE
  5
202
100
AcDbEntity
  8
Layer_1
 62
1
100
AcDbLine
 10
7.164856
 20
14.252165
 30
0.0
 11
7.170604
 21
14.257913
 31
0.0
  0
LINE
  5
203
100
AcDbEntity
  8
Layer_1
 62
1
100
AcDbLine
 10
7.170604
 20
14.257913
 30
0.0
 11
7.170604
 21
14.770039
 31
0.0
  0
LINE
  5
204
100
AcDbEntity
  8
Layer_1
 62
1
100
AcDbLine
 10
7.170604
 20
14.770039
 30
0.0
 11
7.164856
 21
14.775787
 31
0.0
  0
LINE
  5
205
100
AcDbEntity
  8
Layer_1
 62
1
100
AcDbLine
 10
7.164856
 20
14.775787
 30
0.0
 11
6.918635
 21
14.775787
 31
0.0
  0
LINE
  5
206
100
AcDbEntity
  8
Layer_1
 62
1
100
AcDbLine
 10
6.918635
 20
14.775787
 30
0.0
 11
6.918635
 21
15.260039
 31
0.0
  0
LINE
  5
207
100
AcDbEntity
  8
Layer_1
 62
1
100
AcDbLine
 10
6.918635
 20
15.260039
 30
0.0
 11
7.164856
 21
15.260039
 31
0.0
  0
LINE
  5
208
100
AcDbEntity
  8
Layer_1
 62
1
100
AcDbLine
 10
7.164856
 20
15.260039
 30
0.0
 11
7.170604
 21
15.265787
 31
0.0
  0
LINE
  5
209
100
AcDbEntity
  8
Layer_1
 62
1
100
AcDbLine
 10
7.170604
 20
15.265787
 30
0.0
 11
7.170604
 21
15.777913
 31
0.0
  0
LINE
  5
20a
100
AcDbEntity
  8
Layer_1
 62
1
100
AcDbLine
 10
7.170604
 20
15.777913
 30
0.0
 11
7.164856
 21
15.783661
 31
0.0
  0
LINE
  5
20b
100
AcDbEntity
  8
Layer_1
 62
1
100
AcDbLine
 10
7.164856
 20
15.783661
 30
0.0
 11
6.918635
 21
15.783661
 31
0.0
  0
LINE
  5
20c
100
AcDbEntity
  8
Layer_1
 62
1
100
AcDbLine
 10
6.918635
 20
15.783661
 30
0.0
 11
6.918635
 21
16.267913
 31
0.0
  0
LINE
  5
20d
100
AcDbEntity
  8
Layer_1
 62
1
100
AcDbLine
 10
6.918635
 20
16.267913
 30
0.0
 11
7.164856
 21
16.267913
 31
0.0
  0
LINE
  5
20e
100
AcDbEntity
  8
Layer_1
 62
1
100
AcDbLine
 10
7.164856
 20
16.267913
 30
0.0
 11
7.170604
 21
16.273661
 31
0.0
  0
LINE
  5
20f
100
AcDbEntity
  8
Layer_1
 62
1
100
AcDbLine
 10
7.170604
 20
16.273661
 30
0.0
 11
7.170604
 21
16.596811
 31
0.0
  0
LINE
  5
210
100
AcDbEntity
  8
Layer_1
 62
1
100
AcDbLine
 10
7.170604
 20
16.596811
 30
0.0
 11
7.164856
 21
16.602559
 31
0.0
  0
LINE
  5
211
100
AcDbEntity
  8
Layer_1
 62
1
100
AcDbLine
 10
7.164856
 20
16.602559
 30
0.0
 11
0.070053
 21
16.602559
 31
0.0
  0
LINE
  5
212
100
AcDbEntity
  8
Layer_1
 62
1
100
AcDbLine
 10
0.070053
 20
16.602559
 30
0.0
 11
0.064305
 21
16.596811
 31
0.0
  0
LINE
  5
213
100
AcDbEntity
  8
Layer_1
 62
1
100
AcDbLine
 10
0.064305
 20
16.596811
 30
0.0
 11
0.064305
 21
16.273661
 31
0.0
  0
LINE
  5
214
100
AcDbEntity
  8
Layer_1
 62
1
100
AcDbLine
 10
0.064305
 20
16.273661
 30
0.0
 11
0.070053
 21
16.267913
 31
0.0
  0
LINE
  5
215
100
AcDbEntity
  8
Layer_1
 62
1
100
AcDbLine
 10
0.070053
 20
16.267913
 30
0.0
 11
0.316273
 21
16.267913
 31
0.0
  0
LINE
  5
216
100
AcDbEntity
  8
Layer_1
 62
1
100
AcDbLine
 10
0.316273
 20
16.267913
 30
0.0
 11
0.316273
 21
15.783661
 31
0.0
  0
LINE
  5
217
100
AcDbEntity
  8
Layer_1
 62
1
100
AcDbLine
 10
0.316273
 20
15.783661
 30
0.0
 11
0.070053
 21
15.783661
 31
0.0
  0
LINE
  5
218
100
AcDbEntity
  8
Layer_1
 62
1
100
AcDbLine
 10
0.070053
 20
15.783661
 30
0.0
 11
0.064305
 21
15.777913
 31
0.0
  0
LINE
  5
219
100
AcDbEntity
  8
Layer_1
 62
1
100
AcDbLine
 10
0.064305
 20
15.777913
 30
0.0
 11
0.064305
 21
15.265787
 31
0.0
  0
LINE
  5
21a
100
AcDbEntity
  8
Layer_1
 62
1
100
AcDbLine
 10
0.064305
 20
15.265787
 30
0.0
 11
0.070053
 21
15.260039
 31
0.0
  0
LINE
  5
21b
100
AcDbEntity
  8
Layer_1
 62
1
100
AcDbLine
 10
0.070053
 20
15.260039
 30
0.0
 11
0.316273
 21
15.260039
 31
0.0
  0
LINE
  5
21c
100
AcDbEntity
  8
Layer_1
 62
1
100
AcDbLine
 10
0.316273
 20
15.260039
 30
0.0
 11
0.316273
 21
14.775787
 31
0.0
  0
LINE
  5
21d
100
AcDbEntity
  8
Layer_1
 62
1
100
AcDbLine
 10
0.316273
 20
14.775787
 30
0.0
 11
0.070053
 21
14.775787
 31
0.0
  0
LINE
  5
21e
100
AcDbEntity
  8
Layer_1
 62
1
100
AcDbLine
 10
0.070053
 20
14.775787
 30
0.0
 11
0.064305
 21
14.770039
 31
0.0
  0
LINE
  5
21f
100
AcDbEntity
  8
Layer_1
 62
1
100
AcDbLine
 10
0.064305
 20
14.770039
 30
0.0
 11
0.064305
 21
14.257913
 31
0.0
  0
LINE
  5
220
100
AcDbEntity
  8
Layer_1
 62
1
100
AcDbLine
 10
0.064305
 20
14.257913
 30
0.0
 11
0.070053
 21
14.252165
 31
0.0
  0
LINE
  5
221
100
AcDbEntity
  8
Layer_1
 62
1
100
AcDbLine
 10
0.070053
 20
14.252165
 30
0.0
 11
0.316273
 21
14.252165
 31
0.0
  0
LINE
  5
222
100
AcDbEntity
  8
Layer_1
 62
1
100
AcDbLine
 10
0.316273
 20
14.252165
 30
0.0
 11
0.316273
 21
13.767913
 31
0.0
  0
LINE
  5
223
100
AcDbEntity
  8
Layer_1
 62
1
100
AcDbLine
 10
0.316273
 20
13.767913
 30
0.0
 11
0.070053
 21
13.767913
 31
0.0
  0
LINE
  5
224
100
AcDbEntity
  8
Layer_1
 62
1
100
AcDbLine
 10
0.070053
 20
13.767913
 30
0.0
 11
0.064305
 21
13.762165
 31
0.0
  0
LINE
  5
225
100
AcDbEntity
  8
Layer_1
 62
1
100
AcDbLine
 10
0.064305
 20
13.762165
 30
0.0
 11
0.064305
 21
13.439016
 31
0.0
  0
LINE
  5
226
100
AcDbEntity
  8
Layer_1
 62
1
100
AcDbLine
 10
0.064305
 20
13.439016
 30
0.0
 11
0.070053
 21
13.433268
 31
0.0
  0
LINE
  5
227
100
AcDbEntity
  8
Layer_1
 62
1
100
AcDbLine
 10
0.070053
 20
13.433268
 30
0.0
 11
0.849895
 21
13.433268
 31
0.0
  0
LINE
  5
228
100
AcDbEntity
  8
Layer_1
 62
1
100
AcDbLine
 10
0.849895
 20
13.433268
 30
0.0
 11
0.855643
 21
13.439016
 31
0.0
  0
LINE
  5
229
100
AcDbEntity
  8
Layer_1
 62
1
100
AcDbLine
 10
8.143045
 20
13.439016
 30
0.0
 11
8.143045
 21
13.685236
 31
0.0
  0
LINE
  5
22a
100
AcDbEntity
  8
Layer_1
 62
1
100
AcDbLine
 10
8.143045
 20
13.685236
 30
0.0
 11
8.627297
 21
13.685236
 31
0.0
  0
LINE
  5
22b
100
AcDbEntity
  8
Layer_1
 62
1
100
AcDbLine
 10
8.627297
 20
13.685236
 30
0.0
 11
8.627297
 21
13.439016
 31
0.0
  0
LINE
  5
22c
100
AcDbEntity
  8
Layer_1
 62
1
100
AcDbLine
 10
8.627297
 20
13.439016
 30
0.0
 11
8.633045
 21
13.433268
 31
0.0
  0
LINE
  5
22d
100
AcDbEntity
  8
Layer_1
 62
1
100
AcDbLine
 10
8.633045
 20
13.433268
 30
0.0
 11
9.145171
 21
13.433268
 31
0.0
  0
LINE
  5
22e
100
AcDbEntity
  8
Layer_1
 62
1
100
AcDbLine
 10
9.145171
 20
13.433268
 30
0.0
 11
9.150919
 21
13.439016
 31
0.0
  0
LINE
  5
22f
100
AcDbEntity
  8
Layer_1
 62
1
100
AcDbLine
 10
9.150919
 20
13.439016
 30
0.0
 11
9.150919
 21
13.685236
 31
0.0
  0
LINE
  5
230
100
AcDbEntity
  8
Layer_1
 62
1
100
AcDbLine
 10
9.150919
 20
13.685236
 30
0.0
 11
9.635171
 21
13.685236
 31
0.0
  0
LINE
  5
231
100
AcDbEntity
  8
Layer_1
 62
1
100
AcDbLine
 10
9.635171
 20
13.685236
 30
0.0
 11
9.635171
 21
13.439016
 31
0.0
  0
LINE
  5
232
100
AcDbEntity
  8
Layer_1
 62
1
100
AcDbLine
 10
9.635171
 20
13.439016
 30
0.0
 11
9.640919
 21
13.433268
 31
0.0
  0
LINE
  5
233
100
AcDbEntity
  8
Layer_1
 62
1
100
AcDbLine
 10
9.640919
 20
13.433268
 30
0.0
 11
10.153045
 21
13.433268
 31
0.0
  0
LINE
  5
234
100
AcDbEntity
  8
Layer_1
 62
1
100
AcDbLine
 10
10.153045
 20
13.433268
 30
0.0
 11
10.158793
 21
13.439016
 31
0.0
  0
LINE
  5
235
100
AcDbEntity
  8
Layer_1
 62
1
100
AcDbLine
 10
10.158793
 20
13.439016
 30
0.0
 11
10.158793
 21
13.685236
 31
0.0
  0
LINE
  5
236
100
AcDbEntity
  8
Layer_1
 62
1
100
AcDbLine
 10
10.158793
 20
13.685236
 30
0.0
 11
10.643045
 21
13.685236
 31
0.0
  0
LINE
  5
237
100
AcDbEntity
  8
Layer_1
 62
1
100
AcDbLine
 10
10.643045
 20
13.685236
 30
0.0
 11
10.643045
 21
13.439016
 31
0.0
  0
LINE
  5
238
100
AcDbEntity
  8
Layer_1
 62
1
100
AcDbLine
 10
10.643045
 20
13.439016
 30
0.0
 11
10.648793
 21
13.433268
 31
0.0
  0
LINE
  5
239
100
AcDbEntity
  8
Layer_1
 62
1
100
AcDbLine
 10
10.648793
 20
13.433268
 30
0.0
 11
11.160919
 21
13.433268
 31
0.0
  0
LINE
  5
23a
100
AcDbEntity
  8
Layer_1
 62
1
100
AcDbLine
 10
11.160919
 20
13.433268
 30
0.0
 11
11.166667
 21
13.439016
 31
0.0
  0
LINE
  5
23b
100
AcDbEntity
  8
Layer_1
 62
1
100
AcDbLine
 10
11.166667
 20
13.439016
 30
0.0
 11
11.166667
 21
13.685236
 31
0.0
  0
LINE
  5
23c
100
AcDbEntity
  8
Layer_1
 62
1
100
AcDbLine
 10
11.166667
 20
13.685236
 30
0.0
 11
11.650919
 21
13.685236
 31
0.0
  0
LINE
  5
23d
100
AcDbEntity
  8
Layer_1
 62
1
100
AcDbLine
 10
11.650919
 20
13.685236
 30
0.0
 11
11.650919
 21
13.439016
 31
0.0
  0
LINE
  5
23e
100
AcDbEntity
  8
Layer_1
 62
1
100
AcDbLine
 10
11.650919
 20
13.439016
 30
0.0
 11
11.656667
 21
13.433268
 31
0.0
  0
LINE
  5
23f
100
AcDbEntity
  8
Layer_1
 62
1
100
AcDbLine
 10
11.656667
 20
13.433268
 30
0.0
 11
12.168793
 21
13.433268
 31
0.0
  0
LINE
  5
240
100
AcDbEntity
  8
Layer_1
 62
1
100
AcDbLine
 10
12.168793
 20
13.433268
 30
0.0
 11
12.174541
 21
13.439016
 31
0.0
  0
LINE
  5
241
100
AcDbEntity
  8
Layer_1
 62
1
100
AcDbLine
 10
12.174541
 20
13.439016
 30
0.0
 11
12.174541
 21
13.685236
 31
0.0
  0
LINE
  5
242
100
AcDbEntity
  8
Layer_1
 62
1
100
AcDbLine
 10
12.174541
 20
13.685236
 30
0.0
 11
12.658793
 21
13.685236
 31
0.0
  0
LINE
  5
243
100
AcDbEntity
  8
Layer_1
 62
1
100
AcDbLine
 10
12.658793
 20
13.685236
 30
0.0
 11
12.658793
 21
13.439016
 31
0.0
  0
LINE
  5
244
100
AcDbEntity
  8
Layer_1
 62
1
100
AcDbLine
 10
12.658793
 20
13.439016
 30
0.0
 11
12.664541
 21
13.433268
 31
0.0
  0
LINE
  5
245
100
AcDbEntity
  8
Layer_1
 62
1
100
AcDbLine
 10
12.664541
 20
13.433268
 30
0.0
 11
13.176667
 21
13.433268
 31
0.0
  0
LINE
  5
246
100
AcDbEntity
  8
Layer_1
 62
1
100
AcDbLine
 10
13.176667
 20
13.433268
 30
0.0
 11
13.182415
 21
13.439016
 31
0.0
  0
LINE
  5
247
100
AcDbEntity
  8
Layer_1
 62
1
100
AcDbLine
 10
13.182415
 20
13.439016
 30
0.0
 11
13.182415
 21
13.685236
 31
0.0
  0
LINE
  5
248
100
AcDbEntity
  8
Layer_1
 62
1
100
AcDbLine
 10
13.182415
 20
13.685236
 30
0.0
 11
13.666667
 21
13.685236
 31
0.0
  0
LINE
  5
249
100
AcDbEntity
  8
Layer_1
 62
1
100
AcDbLine
 10
13.666667
 20
13.685236
 30
0.0
 11
13.666667
 21
13.439016
 31
0.0
  0
LINE
  5
24a
100
AcDbEntity
  8
Layer_1
 62
1
100
AcDbLine
 10
13.666667
 20
13.439016
 30
0.0
 11
13.672415
 21
13.433268
 31
0.0
  0
LINE
  5
24b
100
AcDbEntity
  8
Layer_1
 62
1
100
AcDbLine
 10
13.672415
 20
13.433268
 30
0.0
 11
14.184541
 21
13.433268
 31
0.0
  0
LINE
  5
24c
100
AcDbEntity
  8
Layer_1
 62
1
100
AcDbLine
 10
14.184541
 20
13.433268
 30
0.0
 11
14.190289
 21
13.439016
 31
0.0
  0
LINE
  5
24d
100
AcDbEntity
  8
Layer_1
 62
1
100
AcDbLine
 10
14.190289
 20
13.439016
 30
0.0
 11
14.190289
 21
13.685236
 31
0.0
  0
LINE
  5
24e
100
AcDbEntity
  8
Layer_1
 62
1
100
AcDbLine
 10
14.190289
 20
13.685236
 30
0.0
 11
14.674541
 21
13.685236
 31
0.0
  0
LINE
  5
24f
100
AcDbEntity
  8
Layer_1
 62
1
100
AcDbLine
 10
14.674541
 20
13.685236
 30
0.0
 11
14.674541
 21
13.439016
 31
0.0
  0
LINE
  5
250
100
AcDbEntity
  8
Layer_1
 62
1
100
AcDbLine
 10
14.674541
 20
13.439016
 30
0.0
 11
14.680289
 21
13.433268
 31
0.0
  0
LINE
  5
251
100
AcDbEntity
  8
Layer_1
 62
1
100
AcDbLine
 10
14.680289
 20
13.433268
 30
0.0
 11
15.192415
 21
13.433268
 31
0.0
  0
LINE
  5
252
100
AcDbEntity
  8
Layer_1
 62
1
100
AcDbLine
 10
15.192415
 20
13.433268
 30
0.0
 11
15.198163
 21
13.439016
 31
0.0
  0
LINE
  5
253
100
AcDbEntity
  8
Layer_1
 62
1
100
AcDbLine
 10
15.198163
 20
13.439016
 30
0.0
 11
15.198163
 21
13.685236
 31
0.0
  0
LINE
  5
254
100
AcDbEntity
  8
Layer_1
 62
1
100
AcDbLine
 10
15.198163
 20
13.685236
 30
0.0
 11
15.682415
 21
13.685236
 31
0.0
  0
LINE
  5
255
100
AcDbEntity
  8
Layer_1
 62
1
100
AcDbLine
 10
15.682415
 20
13.685236
 30
0.0
 11
15.682415
 21
13.439016
 31
0.0
  0
LINE
  5
256
100
AcDbEntity
  8
Layer_1
 62
1
100
AcDbLine
 10
15.682415
 20
13.439016
 30
0.0
 11
15.688163
 21
13.433268
 31
0.0
  0
LINE
  5
257
100
AcDbEntity
  8
Layer_1
 62
1
100
AcDbLine
 10
15.688163
 20
13.433268
 30
0.0
 11
16.200289
 21
13.433268
 31
0.0
  0
LINE
  5
258
100
AcDbEntity
  8
Layer_1
 62
1
100
AcDbLine
 10
16.200289
 20
13.433268
 30
0.0
 11
16.206037
 21
13.439016
 31
0.0
  0
LINE
  5
259
100
AcDbEntity
  8
Layer_1
 62
1
100
AcDbLine
 10
16.206037
 20
13.439016
 30
0.0
 11
16.206037
 21
13.685236
 31
0.0
  0
LINE
  5
25a
100
AcDbEntity
  8
Layer_1
 62
1
100
AcDbLine
 10
16.206037
 20
13.685236
 30
0.0
 11
16.690289
 21
13.685236
 31
0.0
  0
LINE
  5
25b
100
AcDbEntity
  8
Layer_1
 62
1
100
AcDbLine
 10
16.690289
 20
13.685236
 30
0.0
 11
16.690289
 21
13.439016
 31
0.0
  0
LINE
  5
25c
100
AcDbEntity
  8
Layer_1
 62
1
100
AcDbLine
 10
16.690289
 20
13.439016
 30
0.0
 11
16.696037
 21
13.433268
 31
0.0
  0
LINE
  5
25d
100
AcDbEntity
  8
Layer_1
 62
1
100
AcDbLine
 10
16.696037
 20
13.433268
 30
0.0
 11
17.286903
 21
13.433268
 31
0.0
  0
LINE
  5
25e
100
AcDbEntity
  8
Layer_1
 62
1
100
AcDbLine
 10
17.286903
 20
13.433268
 30
0.0
 11
17.292651
 21
13.439016
 31
0.0
  0
LINE
  5
25f
100
AcDbEntity
  8
Layer_1
 62
1
100
AcDbLine
 10
17.292651
 20
13.439016
 30
0.0
 11
17.292651
 21
13.748228
 31
0.0
  0
LINE
  5
260
100
AcDbEntity
  8
Layer_1
 62
1
100
AcDbLine
 10
17.292651
 20
13.748228
 30
0.0
 11
17.538872
 21
13.748228
 31
0.0
  0
LINE
  5
261
100
AcDbEntity
  8
Layer_1
 62
1
100
AcDbLine
 10
17.538872
 20
13.748228
 30
0.0
 11
17.544620
 21
13.753976
 31
0.0
  0
LINE
  5
262
100
AcDbEntity
  8
Layer_1
 62
1
100
AcDbLine
 10
17.544620
 20
13.753976
 30
0.0
 11
17.544620
 21
14.266102
 31
0.0
  0
LINE
  5
263
100
AcDbEntity
  8
Layer_1
 62
1
100
AcDbLine
 10
17.544620
 20
14.266102
 30
0.0
 11
17.538872
 21
14.271850
 31
0.0
  0
LINE
  5
264
100
AcDbEntity
  8
Layer_1
 62
1
100
AcDbLine
 10
17.538872
 20
14.271850
 30
0.0
 11
17.292651
 21
14.271850
 31
0.0
  0
LINE
  5
265
100
AcDbEntity
  8
Layer_1
 62
1
100
AcDbLine
 10
17.292651
 20
14.271850
 30
0.0
 11
17.292651
 21
14.756102
 31
0.0
  0
LINE
  5
266
100
AcDbEntity
  8
Layer_1
 62
1
100
AcDbLine
 10
17.292651
 20
14.756102
 30
0.0
 11
17.538872
 21
14.756102
 31
0.0
  0
LINE
  5
267
100
AcDbEntity
  8
Layer_1
 62
1
100
AcDbLine
 10
17.538872
 20
14.756102
 30
0.0
 11
17.544620
 21
14.761850
 31
0.0
  0
LINE
  5
268
100
AcDbEntity
  8
Layer_1
 62
1
100
AcDbLine
 10
17.544620
 20
14.761850
 30
0.0
 11
17.544620
 21
15.273976
 31
0.0
  0
LINE
  5
269
100
AcDbEntity
  8
Layer_1
 62
1
100
AcDbLine
 10
17.544620
 20
15.273976
 30
0.0
 11
17.538872
 21
15.279724
 31
0.0
  0
LINE
  5
26a
100
AcDbEntity
  8
Layer_1
 62
1
100
AcDbLine
 10
17.538872
 20
15.279724
 30
0.0
 11
17.292651
 21
15.279724
 31
0.0
  0
LINE
  5
26b
100
AcDbEntity
  8
Layer_1
 62
1
100
AcDbLine
 10
17.292651
 20
15.279724
 30
0.0
 11
17.292651
 21
15.763976
 31
0.0
  0
LINE
  5
26c
100
AcDbEntity
  8
Layer_1
 62
1
100
AcDbLine
 10
17.292651
 20
15.763976
 30
0.0
 11
17.538872
 21
15.763976
 31
0.0
  0
LINE
  5
26d
100
AcDbEntity
  8
Layer_1
 62
1
100
AcDbLine
 10
17.538872
 20
15.763976
 30
0.0
 11
17.544620
 21
15.769724
 31
0.0
  0
LINE
  5
26e
100
AcDbEntity
  8
Layer_1
 62
1
100
AcDbLine
 10
17.544620
 20
15.769724
 30
0.0
 11
17.544620
 21
16.281850
 31
0.0
  0
LINE
  5
26f
100
AcDbEntity
  8
Layer_1
 62
1
100
AcDbLine
 10
17.544620
 20
16.281850
 30
0.0
 11
17.538872
 21
16.287598
 31
0.0
  0
LINE
  5
270
100
AcDbEntity
  8
Layer_1
 62
1
100
AcDbLine
 10
17.538872
 20
16.287598
 30
0.0
 11
17.292651
 21
16.287598
 31
0.0
  0
LINE
  5
271
100
AcDbEntity
  8
Layer_1
 62
1
100
AcDbLine
 10
17.292651
 20
16.287598
 30
0.0
 11
17.292651
 21
16.596811
 31
0.0
  0
LINE
  5
272
100
AcDbEntity
  8
Layer_1
 62
1
100
AcDbLine
 10
17.292651
 20
16.596811
 30
0.0
 11
17.286903
 21
16.602559
 31
0.0
  0
LINE
  5
273
100
AcDbEntity
  8
Layer_1
 62
1
100
AcDbLine
 10
17.286903
 20
16.602559
 30
0.0
 11
7.546431
 21
16.602559
 31
0.0
  0
LINE
  5
274
100
AcDbEntity
  8
Layer_1
 62
1
100
AcDbLine
 10
7.546431
 20
16.602559
 30
0.0
 11
7.540683
 21
16.596811
 31
0.0
  0
LINE
  5
275
100
AcDbEntity
  8
Layer_1
 62
1
100
AcDbLine
 10
7.540683
 20
16.596811
 30
0.0
 11
7.540683
 21
16.287598
 31
0.0
  0
LINE
  5
276
100
AcDbEntity
  8
Layer_1
 62
1
100
AcDbLine
 10
7.540683
 20
16.287598
 30
0.0
 11
7.294462
 21
16.287598
 31
0.0
  0
LINE
  5
277
100
AcDbEntity
  8
Layer_1
 62
1
100
AcDbLine
 10
7.294462
 20
16.287598
 30
0.0
 11
7.288714
 21
16.281850
 31
0.0
  0
LINE
  5
278
100
AcDbEntity
  8
Layer_1
 62
1
100
AcDbLine
 10
7.288714
 20
16.281850
 30
0.0
 11
7.288714
 21
15.769724
 31
0.0
  0
LINE
  5
279
100
AcDbEntity
  8
Layer_1
 62
1
100
AcDbLine
 10
7.288714
 20
15.769724
 30
0.0
 11
7.294462
 21
15.763976
 31
0.0
  0
LINE
  5
27a
100
AcDbEntity
  8
Layer_1
 62
1
100
AcDbLine
 10
7.294462
 20
15.763976
 30
0.0
 11
7.540683
 21
15.763976
 31
0.0
  0
LINE
  5
27b
100
AcDbEntity
  8
Layer_1
 62
1
100
AcDbLine
 10
7.540683
 20
15.763976
 30
0.0
 11
7.540683
 21
15.279724
 31
0.0
  0
LINE
  5
27c
100
AcDbEntity
  8
Layer_1
 62
1
100
AcDbLine
 10
7.540683
 20
15.279724
 30
0.0
 11
7.294462
 21
15.279724
 31
0.0
  0
LINE
  5
27d
100
AcDbEntity
  8
Layer_1
 62
1
100
AcDbLine
 10
7.294462
 20
15.279724
 30
0.0
 11
7.288714
 21
15.273976
 31
0.0
  0
LINE
  5
27e
100
AcDbEntity
  8
Layer_1
 62
1
100
AcDbLine
 10
7.288714
 20
15.273976
 30
0.0
 11
7.288714
 21
14.761850
 31
0.0
  0
LINE
  5
27f
100
AcDbEntity
  8
Layer_1
 62
1
100
AcDbLine
 10
7.288714
 20
14.761850
 30
0.0
 11
7.294462
 21
14.756102
 31
0.0
  0
LINE
  5
280
100
AcDbEntity
  8
Layer_1
 62
1
100
AcDbLine
 10
7.294462
 20
14.756102
 30
0.0
 11
7.540683
 21
14.756102
 31
0.0
  0
LINE
  5
281
100
AcDbEntity
  8
Layer_1
 62
1
100
AcDbLine
 10
7.540683
 20
14.756102
 30
0.0
 11
7.540683
 21
14.271850
 31
0.0
  0
LINE
  5
282
100
AcDbEntity
  8
Layer_1
 62
1
100
AcDbLine
 10
7.540683
 20
14.271850
 30
0.0
 11
7.294462
 21
14.271850
 31
0.0
  0
LINE
  5
283
100
AcDbEntity
  8
Layer_1
 62
1
100
AcDbLine
 10
7.294462
 20
14.271850
 30
0.0
 11
7.288714
 21
14.266102
 31
0.0
  0
LINE
  5
284
100
AcDbEntity
  8
Layer_1
 62
1
100
AcDbLine
 10
7.288714
 20
14.266102
 30
0.0
 11
7.288714
 21
13.753976
 31
0.0
  0
LINE
  5
285
100
AcDbEntity
  8
Layer_1
 62
1
100
AcDbLine
 10
7.288714
 20
13.753976
 30
0.0
 11
7.294462
 21
13.748228
 31
0.0
  0
LINE
  5
286
100
AcDbEntity
  8
Layer_1
 62
1
100
AcDbLine
 10
7.294462
 20
13.748228
 30
0.0
 11
7.540683
 21
13.748228
 31
0.0
  0
LINE
  5
287
100
AcDbEntity
  8
Layer_1
 62
1
100
AcDbLine
 10
7.540683
 20
13.748228
 30
0.0
 11
7.540683
 21
13.439016
 31
0.0
  0
LINE
  5
288
100
AcDbEntity
  8
Layer_1
 62
1
100
AcDbLine
 10
7.540683
 20
13.439016
 30
0.0
 11
7.546431
 21
13.433268
 31
0.0
  0
LINE
  5
289
100
AcDbEntity
  8
Layer_1
 62
1
100
AcDbLine
 10
7.546431
 20
13.433268
 30
0.0
 11
8.137297
 21
13.433268
 31
0.0
  0
LINE
  5
28a
100
AcDbEntity
  8
Layer_1
 62
1
100
AcDbLine
 10
8.137297
 20
13.433268
 30
0.0
 11
8.143045
 21
13.439016
 31
0.0
  0
SPLINE
  5
28b
100
AcDbEntity
  8
Layer_1
 62
1
100
AcDbSpline
 70
8
 71
3
 72
8
 73
4
 74
0
 40
0
 40
0
 40
0
 40
0
 40
1
 40
1
 40
1
 40
1
 10
1.872195
 20
17.824487
 30
0.0
 10
1.784615
 20
17.824487
 30
0.0
 10
1.705658
 20
17.771730
 30
0.0
 10
1.672143
 20
17.690816
 30
0.0
  0
SPLINE
  5
28c
100
AcDbEntity
  8
Layer_1
 62
1
100
AcDbSpline
 70
8
 71
3
 72
8
 73
4
 74
0
 40
0
 40
0
 40
0
 40
0
 40
1
 40
1
 40
1
 40
1
 10
1.672143
 20
17.690816
 30
0.0
 10
1.638627
 20
17.609903
 30
0.0
 10
1.657153
 20
17.516767
 30
0.0
 10
1.719082
 20
17.454838
 30
0.0
  0
SPLINE
  5
28d
100
AcDbEntity
  8
Layer_1
 62
1
100
AcDbSpline
 70
8
 71
3
 72
8
 73
4
 74
0
 40
0
 40
0
 40
0
 40
0
 40
1
 40
1
 40
1
 40
1
 10
1.719082
 20
17.454838
 30
0.0
 10
1.781010
 20
17.392910
 30
0.0
 10
1.874146
 20
17.374384
 30
0.0
 10
1.955060
 20
17.407899
 30
0.0
  0
SPLINE
  5
28e
100
AcDbEntity
  8
Layer_1
 62
1
100
AcDbSpline
 70
8
 71
3
 72
8
 73
4
 74
0
 40
0
 40
0
 40
0
 40
0
 40
1
 40
1
 40
1
 40
1
 10
1.955060
 20
17.407899
 30
0.0
 10
2.035974
 20
17.441415
 30
0.0
 10
2.088731
 20
17.520372
 30
0.0
 10
2.088731
 20
17.607952
 30
0.0
  0
SPLINE
  5
28f
100
AcDbEntity
  8
Layer_1
 62
1
100
AcDbSpline
 70
8
 71
3
 72
8
 73
4
 74
0
 40
0
 40
0
 40
0
 40
0
 40
1
 40
1
 40
1
 40
1
 10
2.088731
 20
17.607952
 30
0.0
 10
2.088731
 20
17.665381
 30
0.0
 10
2.065917
 20
17.720457
 30
0.0
 10
2.025309
 20
17.761066
 30
0.0
  0
SPLINE
  5
290
100
AcDbEntity
  8
Layer_1
 62
1
100
AcDbSpline
 70
8
 71
3
 72
8
 73
4
 74
0
 40
0
 40
0
 40
0
 40
0
 40
1
 40
1
 40
1
 40
1
 10
2.025309
 20
17.761066
 30
0.0
 10
1.984701
 20
17.801674
 30
0.0
 10
1.929624
 20
17.824487
 30
0.0
 10
1.872195
 20
17.824487
 30
0.0
  0
LINE
  5
291
100
AcDbEntity
  8
Layer_1
 62
1
100
AcDbLine
 10
1.872195
 20
17.824487
 30
0.0
 11
1.872195
 21
17.824487
 31
0.0
  0
SPLINE
  5
292
100
AcDbEntity
  8
Layer_1
 62
1
100
AcDbSpline
 70
8
 71
3
 72
8
 73
4
 74
0
 40
0
 40
0
 40
0
 40
0
 40
1
 40
1
 40
1
 40
1
 10
14.404729
 20
18.156015
 30
0.0
 10
14.404729
 20
18.132130
 30
0.0
 10
14.419117
 20
18.110596
 30
0.0
 10
14.441185
 20
18.101455
 30
0.0
  0
SPLINE
  5
293
100
AcDbEntity
  8
Layer_1
 62
1
100
AcDbSpline
 70
8
 71
3
 72
8
 73
4
 74
0
 40
0
 40
0
 40
0
 40
0
 40
1
 40
1
 40
1
 40
1
 10
14.441185
 20
18.101455
 30
0.0
 10
14.463252
 20
18.092315
 30
0.0
 10
14.488653
 20
18.097367
 30
0.0
 10
14.505542
 20
18.114257
 30
0.0
  0
SPLINE
  5
294
100
AcDbEntity
  8
Layer_1
 62
1
100
AcDbSpline
 70
8
 71
3
 72
8
 73
4
 74
0
 40
0
 40
0
 40
0
 40
0
 40
1
 40
1
 40
1
 40
1
 10
14.505542
 20
18.114257
 30
0.0
 10
14.522432
 20
18.131147
 30
0.0
 10
14.527485
 20
18.156547
 30
0.0
 10
14.518344
 20
18.178615
 30
0.0
  0
SPLINE
  5
295
100
AcDbEntity
  8
Layer_1
 62
1
100
AcDbSpline
 70
8
 71
3
 72
8
 73
4
 74
0
 40
0
 40
0
 40
0
 40
0
 40
1
 40
1
 40
1
 40
1
 10
14.518344
 20
18.178615
 30
0.0
 10
14.509203
 20
18.200682
 30
0.0
 10
14.487670
 20
18.215070
 30
0.0
 10
14.463784
 20
18.215070
 30
0.0
  0
SPLINE
  5
296
100
AcDbEntity
  8
Layer_1
 62
1
100
AcDbSpline
 70
8
 71
3
 72
8
 73
4
 74
0
 40
0
 40
0
 40
0
 40
0
 40
1
 40
1
 40
1
 40
1
 10
14.463784
 20
18.215070
 30
0.0
 10
14.448122
 20
18.215070
 30
0.0
 10
14.433101
 20
18.208848
 30
0.0
 10
14.422026
 20
18.197774
 30
0.0
  0
SPLINE
  5
297
100
AcDbEntity
  8
Layer_1
 62
1
100
AcDbSpline
 70
8
 71
3
 72
8
 73
4
 74
0
 40
0
 40
0
 40
0
 40
0
 40
1
 40
1
 40
1
 40
1
 10
14.422026
 20
18.197774
 30
0.0
 10
14.410951
 20
18.186699
 30
0.0
 10
14.404729
 20
18.171678
 30
0.0
 10
14.404729
 20
18.156015
 30
0.0
  0
LINE
  5
298
100
AcDbEntity
  8
Layer_1
 62
1
100
AcDbLine
 10
14.404729
 20
18.156015
 30
0.0
 11
14.404729
 21
18.156015
 31
0.0
  0
SPLINE
  5
299
100
AcDbEntity
  8
Layer_1
 62
1
100
AcDbSpline
 70
8
 71
3
 72
8
 73
4
 74
0
 40
0
 40
0
 40
0
 40
0
 40
1
 40
1
 40
1
 40
1
 10
14.404729
 20
22.486732
 30
0.0
 10
14.404729
 20
22.462846
 30
0.0
 10
14.419117
 20
22.441313
 30
0.0
 10
14.441185
 20
22.432172
 30
0.0
  0
SPLINE
  5
29a
100
AcDbEntity
  8
Layer_1
 62
1
100
AcDbSpline
 70
8
 71
3
 72
8
 73
4
 74
0
 40
0
 40
0
 40
0
 40
0
 40
1
 40
1
 40
1
 40
1
 10
14.441185
 20
22.432172
 30
0.0
 10
14.463252
 20
22.423031
 30
0.0
 10
14.488653
 20
22.428084
 30
0.0
 10
14.505542
 20
22.444974
 30
0.0
  0
SPLINE
  5
29b
100
AcDbEntity
  8
Layer_1
 62
1
100
AcDbSpline
 70
8
 71
3
 72
8
 73
4
 74
0
 40
0
 40
0
 40
0
 40
0
 40
1
 40
1
 40
1
 40
1
 10
14.505542
 20
22.444974
 30
0.0
 10
14.522432
 20
22.461863
 30
0.0
 10
14.527485
 20
22.487264
 30
0.0
 10
14.518344
 20
22.509331
 30
0.0
  0
SPLINE
  5
29c
100
AcDbEntity
  8
Layer_1
 62
1
100
AcDbSpline
 70
8
 71
3
 72
8
 73
4
 74
0
 40
0
 40
0
 40
0
 40
0
 40
1
 40
1
 40
1
 40
1
 10
14.518344
 20
22.509331
 30
0.0
 10
14.509203
 20
22.531399
 30
0.0
 10
14.487670
 20
22.545787
 30
0.0
 10
14.463784
 20
22.545787
 30
0.0
  0
SPLINE
  5
29d
100
AcDbEntity
  8
Layer_1
 62
1
100
AcDbSpline
 70
8
 71
3
 72
8
 73
4
 74
0
 40
0
 40
0
 40
0
 40
0
 40
1
 40
1
 40
1
 40
1
 10
14.463784
 20
22.545787
 30
0.0
 10
14.448122
 20
22.545787
 30
0.0
 10
14.433101
 20
22.539565
 30
0.0
 10
14.422026
 20
22.528490
 30
0.0
  0
SPLINE
  5
29e
100
AcDbEntity
  8
Layer_1
 62
1
100
AcDbSpline
 70
8
 71
3
 72
8
 73
4
 74
0
 40
0
 40
0
 40
0
 40
0
 40
1
 40
1
 40
1
 40
1
 10
14.422026
 20
22.528490
 30
0.0
 10
14.410951
 20
22.517415
 30
0.0
 10
14.404729
 20
22.502394
 30
0.0
 10
14.404729
 20
22.486732
 30
0.0
  0
LINE
  5
29f
100
AcDbEntity
  8
Layer_1
 62
1
100
AcDbLine
 10
14.404729
 20
22.486732
 30
0.0
 11
14.404729
 21
22.486732
 31
0.0
  0
SPLINE
  5
2a0
100
AcDbEntity
  8
Layer_1
 62
1
100
AcDbSpline
 70
8
 71
3
 72
8
 73
4
 74
0
 40
0
 40
0
 40
0
 40
0
 40
1
 40
1
 40
1
 40
1
 10
18.869291
 20
18.156015
 30
0.0
 10
18.869291
 20
18.132130
 30
0.0
 10
18.883679
 20
18.110596
 30
0.0
 10
18.905747
 20
18.101455
 30
0.0
  0
SPLINE
  5
2a1
100
AcDbEntity
  8
Layer_1
 62
1
100
AcDbSpline
 70
8
 71
3
 72
8
 73
4
 74
0
 40
0
 40
0
 40
0
 40
0
 40
1
 40
1
 40
1
 40
1
 10
18.905747
 20
18.101455
 30
0.0
 10
18.927814
 20
18.092315
 30
0.0
 10
18.953215
 20
18.097367
 30
0.0
 10
18.970104
 20
18.114257
 30
0.0
  0
SPLINE
  5
2a2
100
AcDbEntity
  8
Layer_1
 62
1
100
AcDbSpline
 70
8
 71
3
 72
8
 73
4
 74
0
 40
0
 40
0
 40
0
 40
0
 40
1
 40
1
 40
1
 40
1
 10
18.970104
 20
18.114257
 30
0.0
 10
18.986994
 20
18.131147
 30
0.0
 10
18.992046
 20
18.156547
 30
0.0
 10
18.982906
 20
18.178615
 30
0.0
  0
SPLINE
  5
2a3
100
AcDbEntity
  8
Layer_1
 62
1
100
AcDbSpline
 70
8
 71
3
 72
8
 73
4
 74
0
 40
0
 40
0
 40
0
 40
0
 40
1
 40
1
 40
1
 40
1
 10
18.982906
 20
18.178615
 30
0.0
 10
18.973765
 20
18.200682
 30
0.0
 10
18.952232
 20
18.215070
 30
0.0
 10
18.928346
 20
18.215070
 30
0.0
  0
SPLINE
  5
2a4
100
AcDbEntity
  8
Layer_1
 62
1
100
AcDbSpline
 70
8
 71
3
 72
8
 73
4
 74
0
 40
0
 40
0
 40
0
 40
0
 40
1
 40
1
 40
1
 40
1
 10
18.928346
 20
18.215070
 30
0.0
 10
18.912684
 20
18.215070
 30
0.0
 10
18.897663
 20
18.208848
 30
0.0
 10
18.886588
 20
18.197774
 30
0.0
  0
SPLINE
  5
2a5
100
AcDbEntity
  8
Layer_1
 62
1
100
AcDbSpline
 70
8
 71
3
 72
8
 73
4
 74
0
 40
0
 40
0
 40
0
 40
0
 40
1
 40
1
 40
1
 40
1
 10
18.886588
 20
18.197774
 30
0.0
 10
18.875513
 20
18.186699
 30
0.0
 10
18.869291
 20
18.171678
 30
0.0
 10
18.869291
 20
18.156015
 30
0.0
  0
LINE
  5
2a6
100
AcDbEntity
  8
Layer_1
 62
1
100
AcDbLine
 10
18.869291
 20
18.156015
 30
0.0
 11
18.869291
 21
18.156015
 31
0.0
  0
SPLINE
  5
2a7
100
AcDbEntity
  8
Layer_1
 62
1
100
AcDbSpline
 70
8
 71
3
 72
8
 73
4
 74
0
 40
0
 40
0
 40
0
 40
0
 40
1
 40
1
 40
1
 40
1
 10
18.869291
 20
22.486732
 30
0.0
 10
18.869291
 20
22.462846
 30
0.0
 10
18.883679
 20
22.441313
 30
0.0
 10
18.905747
 20
22.432172
 30
0.0
  0
SPLINE
  5
2a8
100
AcDbEntity
  8
Layer_1
 62
1
100
AcDbSpline
 70
8
 71
3
 72
8
 73
4
 74
0
 40
0
 40
0
 40
0
 40
0
 40
1
 40
1
 40
1
 40
1
 10
18.905747
 20
22.432172
 30
0.0
 10
18.927814
 20
22.423031
 30
0.0
 10
18.953215
 20
22.428084
 30
0.0
 10
18.970104
 20
22.444974
 30
0.0
  0
SPLINE
  5
2a9
100
AcDbEntity
  8
Layer_1
 62
1
100
AcDbSpline
 70
8
 71
3
 72
8
 73
4
 74
0
 40
0
 40
0
 40
0
 40
0
 40
1
 40
1
 40
1
 40
1
 10
18.970104
 20
22.444974
 30
0.0
 10
18.986994
 20
22.461863
 30
0.0
 10
18.992046
 20
22.487264
 30
0.0
 10
18.982906
 20
22.509331
 30
0.0
  0
SPLINE
  5
2aa
100
AcDbEntity
  8
Layer_1
 62
1
100
AcDbSpline
 70
8
 71
3
 72
8
 73
4
 74
0
 40
0
 40
0
 40
0
 40
0
 40
1
 40
1
 40
1
 40
1
 10
18.982906
 20
22.509331
 30
0.0
 10
18.973765
 20
22.531399
 30
0.0
 10
18.952232
 20
22.545787
 30
0.0
 10
18.928346
 20
22.545787
 30
0.0
  0
SPLINE
  5
2ab
100
AcDbEntity
  8
Layer_1
 62
1
100
AcDbSpline
 70
8
 71
3
 72
8
 73
4
 74
0
 40
0
 40
0
 40
0
 40
0
 40
1
 40
1
 40
1
 40
1
 10
18.928346
 20
22.545787
 30
0.0
 10
18.912684
 20
22.545787
 30
0.0
 10
18.897663
 20
22.539565
 30
0.0
 10
18.886588
 20
22.528490
 30
0.0
  0
SPLINE
  5
2ac
100
AcDbEntity
  8
Layer_1
 62
1
100
AcDbSpline
 70
8
 71
3
 72
8
 73
4
 74
0
 40
0
 40
0
 40
0
 40
0
 40
1
 40
1
 40
1
 40
1
 10
18.886588
 20
22.528490
 30
0.0
 10
18.875513
 20
22.517415
 30
0.0
 10
18.869291
 20
22.502394
 30
0.0
 10
18.869291
 20
22.486732
 30
0.0
  0
LINE
  5
2ad
100
AcDbEntity
  8
Layer_1
 62
1
100
AcDbLine
 10
18.869291
 20
22.486732
 30
0.0
 11
18.869291
 21
22.486732
 31
0.0
  0
SPLINE
  5
2ae
100
AcDbEntity
  8
Layer_1
 62
1
100
AcDbSpline
 70
8
 71
3
 72
8
 73
4
 74
0
 40
0
 40
0
 40
0
 40
0
 40
1
 40
1
 40
1
 40
1
 10
13.841738
 20
20.321356
 30
0.0
 10
13.841738
 20
19.166887
 30
0.0
 10
14.537173
 20
18.126095
 30
0.0
 10
15.603763
 20
17.684299
 30
0.0
  0
SPLINE
  5
2af
100
AcDbEntity
  8
Layer_1
 62
1
100
AcDbSpline
 70
8
 71
3
 72
8
 73
4
 74
0
 40
0
 40
0
 40
0
 40
0
 40
1
 40
1
 40
1
 40
1
 10
15.603763
 20
17.684299
 30
0.0
 10
16.670354
 20
17.242503
 30
0.0
 10
17.898052
 20
17.486707
 30
0.0
 10
18.714385
 20
18.303040
 30
0.0
  0
SPLINE
  5
2b0
100
AcDbEntity
  8
Layer_1
 62
1
100
AcDbSpline
 70
8
 71
3
 72
8
 73
4
 74
0
 40
0
 40
0
 40
0
 40
0
 40
1
 40
1
 40
1
 40
1
 10
18.714385
 20
18.303040
 30
0.0
 10
19.530718
 20
19.119373
 30
0.0
 10
19.774922
 20
20.347071
 30
0.0
 10
19.333126
 20
21.413662
 30
0.0
  0
SPLINE
  5
2b1
100
AcDbEntity
  8
Layer_1
 62
1
100
AcDbSpline
 70
8
 71
3
 72
8
 73
4
 74
0
 40
0
 40
0
 40
0
 40
0
 40
1
 40
1
 40
1
 40
1
 10
19.333126
 20
21.413662
 30
0.0
 10
18.891330
 20
22.480252
 30
0.0
 10
17.850538
 20
23.175687
 30
0.0
 10
16.696069
 20
23.175687
 30
0.0
  0
SPLINE
  5
2b2
100
AcDbEntity
  8
Layer_1
 62
1
100
AcDbSpline
 70
8
 71
3
 72
8
 73
4
 74
0
 40
0
 40
0
 40
0
 40
0
 40
1
 40
1
 40
1
 40
1
 10
16.696069
 20
23.175687
 30
0.0
 10
15.119665
 20
23.175687
 30
0.0
 10
13.841738
 20
21.897760
 30
0.0
 10
13.841738
 20
20.321356
 30
0.0
  0
LINE
  5
2b3
100
AcDbEntity
  8
Layer_1
 62
1
100
AcDbLine
 10
13.841738
 20
20.321356
 30
0.0
 11
13.841738
 21
20.321356
 31
0.0
  0
SPLINE
  5
2b4
100
AcDbEntity
  8
Layer_1
 62
1
100
AcDbSpline
 70
8
 71
3
 72
8
 73
4
 74
0
 40
0
 40
0
 40
0
 40
0
 40
1
 40
1
 40
1
 40
1
 10
12.515791
 20
21.405280
 30
0.0
 10
12.515791
 20
21.429165
 30
0.0
 10
12.501403
 20
21.450699
 30
0.0
 10
12.479335
 20
21.459840
 30
0.0
  0
SPLINE
  5
2b5
100
AcDbEntity
  8
Layer_1
 62
1
100
AcDbSpline
 70
8
 71
3
 72
8
 73
4
 74
0
 40
0
 40
0
 40
0
 40
0
 40
1
 40
1
 40
1
 40
1
 10
12.479335
 20
21.459840
 30
0.0
 10
12.457268
 20
21.468980
 30
0.0
 10
12.431867
 20
21.463928
 30
0.0
 10
12.414978
 20
21.447038
 30
0.0
  0
SPLINE
  5
2b6
100
AcDbEntity
  8
Layer_1
 62
1
100
AcDbSpline
 70
8
 71
3
 72
8
 73
4
 74
0
 40
0
 40
0
 40
0
 40
0
 40
1
 40
1
 40
1
 40
1
 10
12.414978
 20
21.447038
 30
0.0
 10
12.398088
 20
21.430149
 30
0.0
 10
12.393035
 20
21.404748
 30
0.0
 10
12.402176
 20
21.382680
 30
0.0
  0
SPLINE
  5
2b7
100
AcDbEntity
  8
Layer_1
 62
1
100
AcDbSpline
 70
8
 71
3
 72
8
 73
4
 74
0
 40
0
 40
0
 40
0
 40
0
 40
1
 40
1
 40
1
 40
1
 10
12.402176
 20
21.382680
 30
0.0
 10
12.411317
 20
21.360613
 30
0.0
 10
12.432850
 20
21.346225
 30
0.0
 10
12.456736
 20
21.346225
 30
0.0
  0
SPLINE
  5
2b8
100
AcDbEntity
  8
Layer_1
 62
1
100
AcDbSpline
 70
8
 71
3
 72
8
 73
4
 74
0
 40
0
 40
0
 40
0
 40
0
 40
1
 40
1
 40
1
 40
1
 10
12.456736
 20
21.346225
 30
0.0
 10
12.472398
 20
21.346225
 30
0.0
 10
12.487419
 20
21.352447
 30
0.0
 10
12.498494
 20
21.363522
 30
0.0
  0
SPLINE
  5
2b9
100
AcDbEntity
  8
Layer_1
 62
1
100
AcDbSpline
 70
8
 71
3
 72
8
 73
4
 74
0
 40
0
 40
0
 40
0
 40
0
 40
1
 40
1
 40
1
 40
1
 10
12.498494
 20
21.363522
 30
0.0
 10
12.509569
 20
21.374597
 30
0.0
 10
12.515791
 20
21.389617
 30
0.0
 10
12.515791
 20
21.405280
 30
0.0
  0
LINE
  5
2ba
100
AcDbEntity
  8
Layer_1
 62
1
100
AcDbLine
 10
12.515791
 20
21.405280
 30
0.0
 11
12.515791
 21
21.405280
 31
0.0
  0
SPLINE
  5
2bb
100
AcDbEntity
  8
Layer_1
 62
1
100
AcDbSpline
 70
8
 71
3
 72
8
 73
4
 74
0
 40
0
 40
0
 40
0
 40
0
 40
1
 40
1
 40
1
 40
1
 10
12.515791
 20
19.239934
 30
0.0
 10
12.515791
 20
19.263820
 30
0.0
 10
12.501403
 20
19.285353
 30
0.0
 10
12.479335
 20
19.294494
 30
0.0
  0
SPLINE
  5
2bc
100
AcDbEntity
  8
Layer_1
 62
1
100
AcDbSpline
 70
8
 71
3
 72
8
 73
4
 74
0
 40
0
 40
0
 40
0
 40
0
 40
1
 40
1
 40
1
 40
1
 10
12.479335
 20
19.294494
 30
0.0
 10
12.457268
 20
19.303635
 30
0.0
 10
12.431867
 20
19.298582
 30
0.0
 10
12.414978
 20
19.281693
 30
0.0
  0
SPLINE
  5
2bd
100
AcDbEntity
  8
Layer_1
 62
1
100
AcDbSpline
 70
8
 71
3
 72
8
 73
4
 74
0
 40
0
 40
0
 40
0
 40
0
 40
1
 40
1
 40
1
 40
1
 10
12.414978
 20
19.281693
 30
0.0
 10
12.398088
 20
19.264803
 30
0.0
 10
12.393035
 20
19.239402
 30
0.0
 10
12.402176
 20
19.217335
 30
0.0
  0
SPLINE
  5
2be
100
AcDbEntity
  8
Layer_1
 62
1
100
AcDbSpline
 70
8
 71
3
 72
8
 73
4
 74
0
 40
0
 40
0
 40
0
 40
0
 40
1
 40
1
 40
1
 40
1
 10
12.402176
 20
19.217335
 30
0.0
 10
12.411317
 20
19.195267
 30
0.0
 10
12.432850
 20
19.180879
 30
0.0
 10
12.456736
 20
19.180879
 30
0.0
  0
SPLINE
  5
2bf
100
AcDbEntity
  8
Layer_1
 62
1
100
AcDbSpline
 70
8
 71
3
 72
8
 73
4
 74
0
 40
0
 40
0
 40
0
 40
0
 40
1
 40
1
 40
1
 40
1
 10
12.456736
 20
19.180879
 30
0.0
 10
12.472398
 20
19.180879
 30
0.0
 10
12.487419
 20
19.187101
 30
0.0
 10
12.498494
 20
19.198176
 30
0.0
  0
SPLINE
  5
2c0
100
AcDbEntity
  8
Layer_1
 62
1
100
AcDbSpline
 70
8
 71
3
 72
8
 73
4
 74
0
 40
0
 40
0
 40
0
 40
0
 40
1
 40
1
 40
1
 40
1
 10
12.498494
 20
19.198176
 30
0.0
 10
12.509569
 20
19.209251
 30
0.0
 10
12.515791
 20
19.224272
 30
0.0
 10
12.515791
 20
19.239934
 30
0.0
  0
LINE
  5
2c1
100
AcDbEntity
  8
Layer_1
 62
1
100
AcDbLine
 10
12.515791
 20
19.239934
 30
0.0
 11
12.515791
 21
19.239934
 31
0.0
  0
SPLINE
  5
2c2
100
AcDbEntity
  8
Layer_1
 62
1
100
AcDbSpline
 70
8
 71
3
 72
8
 73
4
 74
0
 40
0
 40
0
 40
0
 40
0
 40
1
 40
1
 40
1
 40
1
 10
10.641804
 20
20.322611
 30
0.0
 10
10.641804
 20
20.346497
 30
0.0
 10
10.627416
 20
20.368031
 30
0.0
 10
10.605348
 20
20.377171
 30
0.0
  0
SPLINE
  5
2c3
100
AcDbEntity
  8
Layer_1
 62
1
100
AcDbSpline
 70
8
 71
3
 72
8
 73
4
 74
0
 40
0
 40
0
 40
0
 40
0
 40
1
 40
1
 40
1
 40
1
 10
10.605348
 20
20.377171
 30
0.0
 10
10.583281
 20
20.386312
 30
0.0
 10
10.557880
 20
20.381259
 30
0.0
 10
10.540991
 20
20.364370
 30
0.0
  0
SPLINE
  5
2c4
100
AcDbEntity
  8
Layer_1
 62
1
100
AcDbSpline
 70
8
 71
3
 72
8
 73
4
 74
0
 40
0
 40
0
 40
0
 40
0
 40
1
 40
1
 40
1
 40
1
 10
10.540991
 20
20.364370
 30
0.0
 10
10.524101
 20
20.347480
 30
0.0
 10
10.519048
 20
20.322079
 30
0.0
 10
10.528189
 20
20.300012
 30
0.0
  0
SPLINE
  5
2c5
100
AcDbEntity
  8
Layer_1
 62
1
100
AcDbSpline
 70
8
 71
3
 72
8
 73
4
 74
0
 40
0
 40
0
 40
0
 40
0
 40
1
 40
1
 40
1
 40
1
 10
10.528189
 20
20.300012
 30
0.0
 10
10.537330
 20
20.277945
 30
0.0
 10
10.558863
 20
20.263556
 30
0.0
 10
10.582749
 20
20.263556
 30
0.0
  0
SPLINE
  5
2c6
100
AcDbEntity
  8
Layer_1
 62
1
100
AcDbSpline
 70
8
 71
3
 72
8
 73
4
 74
0
 40
0
 40
0
 40
0
 40
0
 40
1
 40
1
 40
1
 40
1
 10
10.582749
 20
20.263556
 30
0.0
 10
10.598411
 20
20.263556
 30
0.0
 10
10.613432
 20
20.269778
 30
0.0
 10
10.624507
 20
20.280853
 30
0.0
  0
SPLINE
  5
2c7
100
AcDbEntity
  8
Layer_1
 62
1
100
AcDbSpline
 70
8
 71
3
 72
8
 73
4
 74
0
 40
0
 40
0
 40
0
 40
0
 40
1
 40
1
 40
1
 40
1
 10
10.624507
 20
20.280853
 30
0.0
 10
10.635582
 20
20.291928
 30
0.0
 10
10.641804
 20
20.306949
 30
0.0
 10
10.641804
 20
20.322611
 30
0.0
  0
LINE
  5
2c8
100
AcDbEntity
  8
Layer_1
 62
1
100
AcDbLine
 10
10.641804
 20
20.322611
 30
0.0
 11
10.641804
 21
20.322611
 31
0.0
  0
SPLINE
  5
2c9
100
AcDbEntity
  8
Layer_1
 62
1
100
AcDbSpline
 70
8
 71
3
 72
8
 73
4
 74
0
 40
0
 40
0
 40
0
 40
0
 40
1
 40
1
 40
1
 40
1
 10
12.716581
 20
20.322587
 30
0.0
 10
12.716581
 20
20.680870
 30
0.0
 10
12.500756
 20
21.003875
 30
0.0
 10
12.169746
 20
21.140984
 30
0.0
  0
SPLINE
  5
2ca
100
AcDbEntity
  8
Layer_1
 62
1
100
AcDbSpline
 70
8
 71
3
 72
8
 73
4
 74
0
 40
0
 40
0
 40
0
 40
0
 40
1
 40
1
 40
1
 40
1
 10
12.169746
 20
21.140984
 30
0.0
 10
11.838735
 20
21.278093
 30
0.0
 10
11.457725
 20
21.202306
 30
0.0
 10
11.204380
 20
20.948961
 30
0.0
  0
SPLINE
  5
2cb
100
AcDbEntity
  8
Layer_1
 62
1
100
AcDbSpline
 70
8
 71
3
 72
8
 73
4
 74
0
 40
0
 40
0
 40
0
 40
0
 40
1
 40
1
 40
1
 40
1
 10
11.204380
 20
20.948961
 30
0.0
 10
10.951036
 20
20.695616
 30
0.0
 10
10.875248
 20
20.314606
 30
0.0
 10
11.012357
 20
19.983596
 30
0.0
  0
SPLINE
  5
2cc
100
AcDbEntity
  8
Layer_1
 62
1
100
AcDbSpline
 70
8
 71
3
 72
8
 73
4
 74
0
 40
0
 40
0
 40
0
 40
0
 40
1
 40
1
 40
1
 40
1
 10
11.012357
 20
19.983596
 30
0.0
 10
11.149466
 20
19.652585
 30
0.0
 10
11.472471
 20
19.436760
 30
0.0
 10
11.830754
 20
19.436760
 30
0.0
  0
SPLINE
  5
2cd
100
AcDbEntity
  8
Layer_1
 62
1
100
AcDbSpline
 70
8
 71
3
 72
8
 73
4
 74
0
 40
0
 40
0
 40
0
 40
0
 40
1
 40
1
 40
1
 40
1
 10
11.830754
 20
19.436760
 30
0.0
 10
12.065690
 20
19.436760
 30
0.0
 10
12.291004
 20
19.530088
 30
0.0
 10
12.457128
 20
19.696213
 30
0.0
  0
SPLINE
  5
2ce
100
AcDbEntity
  8
Layer_1
 62
1
100
AcDbSpline
 70
8
 71
3
 72
8
 73
4
 74
0
 40
0
 40
0
 40
0
 40
0
 40
1
 40
1
 40
1
 40
1
 10
12.457128
 20
19.696213
 30
0.0
 10
12.623253
 20
19.862337
 30
0.0
 10
12.716581
 20
20.087651
 30
0.0
 10
12.716581
 20
20.322587
 30
0.0
  0
LINE
  5
2cf
100
AcDbEntity
  8
Layer_1
 62
1
100
AcDbLine
 10
12.716581
 20
20.322587
 30
0.0
 11
12.716581
 21
20.322587
 31
0.0
  0
SPLINE
  5
2d0
100
AcDbEntity
  8
Layer_1
 62
1
100
AcDbSpline
 70
8
 71
3
 72
8
 73
4
 74
0
 40
0
 40
0
 40
0
 40
0
 40
1
 40
1
 40
1
 40
1
 10
11.889809
 20
20.322587
 30
0.0
 10
11.889809
 20
20.346472
 30
0.0
 10
11.875421
 20
20.368006
 30
0.0
 10
11.853354
 20
20.377147
 30
0.0
  0
SPLINE
  5
2d1
100
AcDbEntity
  8
Layer_1
 62
1
100
AcDbSpline
 70
8
 71
3
 72
8
 73
4
 74
0
 40
0
 40
0
 40
0
 40
0
 40
1
 40
1
 40
1
 40
1
 10
11.853354
 20
20.377147
 30
0.0
 10
11.831286
 20
20.386287
 30
0.0
 10
11.805886
 20
20.381235
 30
0.0
 10
11.788996
 20
20.364345
 30
0.0
  0
SPLINE
  5
2d2
100
AcDbEntity
  8
Layer_1
 62
1
100
AcDbSpline
 70
8
 71
3
 72
8
 73
4
 74
0
 40
0
 40
0
 40
0
 40
0
 40
1
 40
1
 40
1
 40
1
 10
11.788996
 20
20.364345
 30
0.0
 10
11.772106
 20
20.347455
 30
0.0
 10
11.767054
 20
20.322055
 30
0.0
 10
11.776195
 20
20.299987
 30
0.0
  0
SPLINE
  5
2d3
100
AcDbEntity
  8
Layer_1
 62
1
100
AcDbSpline
 70
8
 71
3
 72
8
 73
4
 74
0
 40
0
 40
0
 40
0
 40
0
 40
1
 40
1
 40
1
 40
1
 10
11.776195
 20
20.299987
 30
0.0
 10
11.785335
 20
20.277920
 30
0.0
 10
11.806869
 20
20.263532
 30
0.0
 10
11.830754
 20
20.263532
 30
0.0
  0
SPLINE
  5
2d4
100
AcDbEntity
  8
Layer_1
 62
1
100
AcDbSpline
 70
8
 71
3
 72
8
 73
4
 74
0
 40
0
 40
0
 40
0
 40
0
 40
1
 40
1
 40
1
 40
1
 10
11.830754
 20
20.263532
 30
0.0
 10
11.846417
 20
20.263532
 30
0.0
 10
11.861438
 20
20.269754
 30
0.0
 10
11.872513
 20
20.280828
 30
0.0
  0
SPLINE
  5
2d5
100
AcDbEntity
  8
Layer_1
 62
1
100
AcDbSpline
 70
8
 71
3
 72
8
 73
4
 74
0
 40
0
 40
0
 40
0
 40
0
 40
1
 40
1
 40
1
 40
1
 10
11.872513
 20
20.280828
 30
0.0
 10
11.883588
 20
20.291903
 30
0.0
 10
11.889809
 20
20.306924
 30
0.0
 10
11.889809
 20
20.322587
 30
0.0
  0
LINE
  5
2d6
100
AcDbEntity
  8
Layer_1
 62
1
100
AcDbLine
 10
11.889809
 20
20.322587
 30
0.0
 11
11.889809
 21
20.322587
 31
0.0
  0
LINE
  5
2d7
100
AcDbEntity
  8
Layer_1
 62
1
100
AcDbLine
 10
20.296425
 20
18.057605
 30
0.0
 11
20.050205
 21
18.057605
 31
0.0
  0
LINE
  5
2d8
100
AcDbEntity
  8
Layer_1
 62
1
100
AcDbLine
 10
20.050205
 20
18.057605
 30
0.0
 11
20.050205
 21
18.541857
 31
0.0
  0
LINE
  5
2d9
100
AcDbEntity
  8
Layer_1
 62
1
100
AcDbLine
 10
20.050205
 20
18.541857
 30
0.0
 11
20.296425
 21
18.541857
 31
0.0
  0
LINE
  5
2da
100
AcDbEntity
  8
Layer_1
 62
1
100
AcDbLine
 10
20.296425
 20
18.541857
 30
0.0
 11
20.302173
 21
18.547605
 31
0.0
  0
LINE
  5
2db
100
AcDbEntity
  8
Layer_1
 62
1
100
AcDbLine
 10
20.302173
 20
18.547605
 30
0.0
 11
20.302173
 21
19.059731
 31
0.0
  0
LINE
  5
2dc
100
AcDbEntity
  8
Layer_1
 62
1
100
AcDbLine
 10
20.302173
 20
19.059731
 30
0.0
 11
20.296425
 21
19.065479
 31
0.0
  0
LINE
  5
2dd
100
AcDbEntity
  8
Layer_1
 62
1
100
AcDbLine
 10
20.296425
 20
19.065479
 30
0.0
 11
20.050205
 21
19.065479
 31
0.0
  0
LINE
  5
2de
100
AcDbEntity
  8
Layer_1
 62
1
100
AcDbLine
 10
20.050205
 20
19.065479
 30
0.0
 11
20.050205
 21
19.549731
 31
0.0
  0
LINE
  5
2df
100
AcDbEntity
  8
Layer_1
 62
1
100
AcDbLine
 10
20.050205
 20
19.549731
 30
0.0
 11
20.296425
 21
19.549731
 31
0.0
  0
LINE
  5
2e0
100
AcDbEntity
  8
Layer_1
 62
1
100
AcDbLine
 10
20.296425
 20
19.549731
 30
0.0
 11
20.302173
 21
19.555479
 31
0.0
  0
LINE
  5
2e1
100
AcDbEntity
  8
Layer_1
 62
1
100
AcDbLine
 10
20.302173
 20
19.555479
 30
0.0
 11
20.302173
 21
20.067605
 31
0.0
  0
LINE
  5
2e2
100
AcDbEntity
  8
Layer_1
 62
1
100
AcDbLine
 10
20.302173
 20
20.067605
 30
0.0
 11
20.296425
 21
20.073353
 31
0.0
  0
LINE
  5
2e3
100
AcDbEntity
  8
Layer_1
 62
1
100
AcDbLine
 10
20.296425
 20
20.073353
 30
0.0
 11
20.050205
 21
20.073353
 31
0.0
  0
LINE
  5
2e4
100
AcDbEntity
  8
Layer_1
 62
1
100
AcDbLine
 10
20.050205
 20
20.073353
 30
0.0
 11
20.050205
 21
20.557604
 31
0.0
  0
LINE
  5
2e5
100
AcDbEntity
  8
Layer_1
 62
1
100
AcDbLine
 10
20.050205
 20
20.557604
 30
0.0
 11
20.296425
 21
20.557604
 31
0.0
  0
LINE
  5
2e6
100
AcDbEntity
  8
Layer_1
 62
1
100
AcDbLine
 10
20.296425
 20
20.557604
 30
0.0
 11
20.302173
 21
20.563352
 31
0.0
  0
LINE
  5
2e7
100
AcDbEntity
  8
Layer_1
 62
1
100
AcDbLine
 10
20.302173
 20
20.563352
 30
0.0
 11
20.302173
 21
21.075478
 31
0.0
  0
LINE
  5
2e8
100
AcDbEntity
  8
Layer_1
 62
1
100
AcDbLine
 10
20.302173
 20
21.075478
 30
0.0
 11
20.296425
 21
21.081226
 31
0.0
  0
LINE
  5
2e9
100
AcDbEntity
  8
Layer_1
 62
1
100
AcDbLine
 10
20.296425
 20
21.081226
 30
0.0
 11
20.050205
 21
21.081226
 31
0.0
  0
LINE
  5
2ea
100
AcDbEntity
  8
Layer_1
 62
1
100
AcDbLine
 10
20.050205
 20
21.081226
 30
0.0
 11
20.050205
 21
21.565477
 31
0.0
  0
LINE
  5
2eb
100
AcDbEntity
  8
Layer_1
 62
1
100
AcDbLine
 10
20.050205
 20
21.565477
 30
0.0
 11
20.296425
 21
21.565477
 31
0.0
  0
LINE
  5
2ec
100
AcDbEntity
  8
Layer_1
 62
1
100
AcDbLine
 10
20.296425
 20
21.565477
 30
0.0
 11
20.302173
 21
21.571225
 31
0.0
  0
LINE
  5
2ed
100
AcDbEntity
  8
Layer_1
 62
1
100
AcDbLine
 10
20.302173
 20
21.571225
 30
0.0
 11
20.302173
 21
22.083351
 31
0.0
  0
LINE
  5
2ee
100
AcDbEntity
  8
Layer_1
 62
1
100
AcDbLine
 10
20.302173
 20
22.083351
 30
0.0
 11
20.296425
 21
22.089099
 31
0.0
  0
LINE
  5
2ef
100
AcDbEntity
  8
Layer_1
 62
1
100
AcDbLine
 10
20.296425
 20
22.089099
 30
0.0
 11
20.050205
 21
22.089099
 31
0.0
  0
LINE
  5
2f0
100
AcDbEntity
  8
Layer_1
 62
1
100
AcDbLine
 10
20.050205
 20
22.089099
 30
0.0
 11
20.050205
 21
22.573351
 31
0.0
  0
LINE
  5
2f1
100
AcDbEntity
  8
Layer_1
 62
1
100
AcDbLine
 10
20.050205
 20
22.573351
 30
0.0
 11
20.296425
 21
22.573351
 31
0.0
  0
LINE
  5
2f2
100
AcDbEntity
  8
Layer_1
 62
1
100
AcDbLine
 10
20.296425
 20
22.573351
 30
0.0
 11
20.302173
 21
22.579099
 31
0.0
  0
LINE
  5
2f3
100
AcDbEntity
  8
Layer_1
 62
1
100
AcDbLine
 10
20.302173
 20
22.579099
 30
0.0
 11
20.302173
 21
23.091225
 31
0.0
  0
LINE
  5
2f4
100
AcDbEntity
  8
Layer_1
 62
1
100
AcDbLine
 10
20.302173
 20
23.091225
 30
0.0
 11
20.296425
 21
23.096973
 31
0.0
  0
LINE
  5
2f5
100
AcDbEntity
  8
Layer_1
 62
1
100
AcDbLine
 10
20.296425
 20
23.096973
 30
0.0
 11
20.050205
 21
23.096973
 31
0.0
  0
LINE
  5
2f6
100
AcDbEntity
  8
Layer_1
 62
1
100
AcDbLine
 10
20.050205
 20
23.096973
 30
0.0
 11
20.050205
 21
23.610909
 31
0.0
  0
LINE
  5
2f7
100
AcDbEntity
  8
Layer_1
 62
1
100
AcDbLine
 10
20.050205
 20
23.610909
 30
0.0
 11
20.044457
 21
23.616657
 31
0.0
  0
LINE
  5
2f8
100
AcDbEntity
  8
Layer_1
 62
1
100
AcDbLine
 10
20.044457
 20
23.616657
 30
0.0
 11
19.467528
 21
23.616657
 31
0.0
  0
LINE
  5
2f9
100
AcDbEntity
  8
Layer_1
 62
1
100
AcDbLine
 10
19.467528
 20
23.616657
 30
0.0
 11
19.467528
 21
23.862878
 31
0.0
  0
LINE
  5
2fa
100
AcDbEntity
  8
Layer_1
 62
1
100
AcDbLine
 10
19.467528
 20
23.862878
 30
0.0
 11
19.461780
 21
23.868626
 31
0.0
  0
LINE
  5
2fb
100
AcDbEntity
  8
Layer_1
 62
1
100
AcDbLine
 10
19.461780
 20
23.868626
 30
0.0
 11
18.949654
 21
23.868626
 31
0.0
  0
LINE
  5
2fc
100
AcDbEntity
  8
Layer_1
 62
1
100
AcDbLine
 10
18.949654
 20
23.868626
 30
0.0
 11
18.943906
 21
23.862878
 31
0.0
  0
LINE
  5
2fd
100
AcDbEntity
  8
Layer_1
 62
1
100
AcDbLine
 10
18.943906
 20
23.862878
 30
0.0
 11
18.943906
 21
23.616657
 31
0.0
  0
LINE
  5
2fe
100
AcDbEntity
  8
Layer_1
 62
1
100
AcDbLine
 10
18.943906
 20
23.616657
 30
0.0
 11
18.459654
 21
23.616657
 31
0.0
  0
LINE
  5
2ff
100
AcDbEntity
  8
Layer_1
 62
1
100
AcDbLine
 10
18.459654
 20
23.616657
 30
0.0
 11
18.459654
 21
23.862878
 31
0.0
  0
LINE
  5
300
100
AcDbEntity
  8
Layer_1
 62
1
100
AcDbLine
 10
18.459654
 20
23.862878
 30
0.0
 11
18.453906
 21
23.868626
 31
0.0
  0
LINE
  5
301
100
AcDbEntity
  8
Layer_1
 62
1
100
AcDbLine
 10
18.453906
 20
23.868626
 30
0.0
 11
17.941780
 21
23.868626
 31
0.0
  0
LINE
  5
302
100
AcDbEntity
  8
Layer_1
 62
1
100
AcDbLine
 10
17.941780
 20
23.868626
 30
0.0
 11
17.936031
 21
23.862878
 31
0.0
  0
LINE
  5
303
100
AcDbEntity
  8
Layer_1
 62
1
100
AcDbLine
 10
17.936031
 20
23.862878
 30
0.0
 11
17.936031
 21
23.616657
 31
0.0
  0
LINE
  5
304
100
AcDbEntity
  8
Layer_1
 62
1
100
AcDbLine
 10
17.936031
 20
23.616657
 30
0.0
 11
17.451780
 21
23.616657
 31
0.0
  0
LINE
  5
305
100
AcDbEntity
  8
Layer_1
 62
1
100
AcDbLine
 10
17.451780
 20
23.616657
 30
0.0
 11
17.451780
 21
23.862878
 31
0.0
  0
LINE
  5
306
100
AcDbEntity
  8
Layer_1
 62
1
100
AcDbLine
 10
17.451780
 20
23.862878
 30
0.0
 11
17.446031
 21
23.868626
 31
0.0
  0
LINE
  5
307
100
AcDbEntity
  8
Layer_1
 62
1
100
AcDbLine
 10
17.446031
 20
23.868626
 30
0.0
 11
16.933906
 21
23.868626
 31
0.0
  0
LINE
  5
308
100
AcDbEntity
  8
Layer_1
 62
1
100
AcDbLine
 10
16.933906
 20
23.868626
 30
0.0
 11
16.928157
 21
23.862878
 31
0.0
  0
LINE
  5
309
100
AcDbEntity
  8
Layer_1
 62
1
100
AcDbLine
 10
16.928157
 20
23.862878
 30
0.0
 11
16.928157
 21
23.616657
 31
0.0
  0
LINE
  5
30a
100
AcDbEntity
  8
Layer_1
 62
1
100
AcDbLine
 10
16.928157
 20
23.616657
 30
0.0
 11
16.443906
 21
23.616657
 31
0.0
  0
LINE
  5
30b
100
AcDbEntity
  8
Layer_1
 62
1
100
AcDbLine
 10
16.443906
 20
23.616657
 30
0.0
 11
16.443906
 21
23.862878
 31
0.0
  0
LINE
  5
30c
100
AcDbEntity
  8
Layer_1
 62
1
100
AcDbLine
 10
16.443906
 20
23.862878
 30
0.0
 11
16.438157
 21
23.868626
 31
0.0
  0
LINE
  5
30d
100
AcDbEntity
  8
Layer_1
 62
1
100
AcDbLine
 10
16.438157
 20
23.868626
 30
0.0
 11
15.926031
 21
23.868626
 31
0.0
  0
LINE
  5
30e
100
AcDbEntity
  8
Layer_1
 62
1
100
AcDbLine
 10
15.926031
 20
23.868626
 30
0.0
 11
15.920283
 21
23.862878
 31
0.0
  0
LINE
  5
30f
100
AcDbEntity
  8
Layer_1
 62
1
100
AcDbLine
 10
15.920283
 20
23.862878
 30
0.0
 11
15.920283
 21
23.616657
 31
0.0
  0
LINE
  5
310
100
AcDbEntity
  8
Layer_1
 62
1
100
AcDbLine
 10
15.920283
 20
23.616657
 30
0.0
 11
15.436031
 21
23.616657
 31
0.0
  0
LINE
  5
311
100
AcDbEntity
  8
Layer_1
 62
1
100
AcDbLine
 10
15.436031
 20
23.616657
 30
0.0
 11
15.436031
 21
23.862878
 31
0.0
  0
LINE
  5
312
100
AcDbEntity
  8
Layer_1
 62
1
100
AcDbLine
 10
15.436031
 20
23.862878
 30
0.0
 11
15.430283
 21
23.868626
 31
0.0
  0
LINE
  5
313
100
AcDbEntity
  8
Layer_1
 62
1
100
AcDbLine
 10
15.430283
 20
23.868626
 30
0.0
 11
14.918157
 21
23.868626
 31
0.0
  0
LINE
  5
314
100
AcDbEntity
  8
Layer_1
 62
1
100
AcDbLine
 10
14.918157
 20
23.868626
 30
0.0
 11
14.912409
 21
23.862878
 31
0.0
  0
LINE
  5
315
100
AcDbEntity
  8
Layer_1
 62
1
100
AcDbLine
 10
14.912409
 20
23.862878
 30
0.0
 11
14.912409
 21
23.616657
 31
0.0
  0
LINE
  5
316
100
AcDbEntity
  8
Layer_1
 62
1
100
AcDbLine
 10
14.912409
 20
23.616657
 30
0.0
 11
14.428157
 21
23.616657
 31
0.0
  0
LINE
  5
317
100
AcDbEntity
  8
Layer_1
 62
1
100
AcDbLine
 10
14.428157
 20
23.616657
 30
0.0
 11
14.428157
 21
23.862878
 31
0.0
  0
LINE
  5
318
100
AcDbEntity
  8
Layer_1
 62
1
100
AcDbLine
 10
14.428157
 20
23.862878
 30
0.0
 11
14.422409
 21
23.868626
 31
0.0
  0
LINE
  5
319
100
AcDbEntity
  8
Layer_1
 62
1
100
AcDbLine
 10
14.422409
 20
23.868626
 30
0.0
 11
13.910283
 21
23.868626
 31
0.0
  0
LINE
  5
31a
100
AcDbEntity
  8
Layer_1
 62
1
100
AcDbLine
 10
13.910283
 20
23.868626
 30
0.0
 11
13.904535
 21
23.862878
 31
0.0
  0
LINE
  5
31b
100
AcDbEntity
  8
Layer_1
 62
1
100
AcDbLine
 10
13.904535
 20
23.862878
 30
0.0
 11
13.904535
 21
23.616657
 31
0.0
  0
LINE
  5
31c
100
AcDbEntity
  8
Layer_1
 62
1
100
AcDbLine
 10
13.904535
 20
23.616657
 30
0.0
 11
13.420283
 21
23.616657
 31
0.0
  0
LINE
  5
31d
100
AcDbEntity
  8
Layer_1
 62
1
100
AcDbLine
 10
13.420283
 20
23.616657
 30
0.0
 11
13.420283
 21
23.862878
 31
0.0
  0
LINE
  5
31e
100
AcDbEntity
  8
Layer_1
 62
1
100
AcDbLine
 10
13.420283
 20
23.862878
 30
0.0
 11
13.414535
 21
23.868626
 31
0.0
  0
LINE
  5
31f
100
AcDbEntity
  8
Layer_1
 62
1
100
AcDbLine
 10
13.414535
 20
23.868626
 30
0.0
 11
12.902409
 21
23.868626
 31
0.0
  0
LINE
  5
320
100
AcDbEntity
  8
Layer_1
 62
1
100
AcDbLine
 10
12.902409
 20
23.868626
 30
0.0
 11
12.896661
 21
23.862878
 31
0.0
  0
LINE
  5
321
100
AcDbEntity
  8
Layer_1
 62
1
100
AcDbLine
 10
12.896661
 20
23.862878
 30
0.0
 11
12.896661
 21
23.616657
 31
0.0
  0
LINE
  5
322
100
AcDbEntity
  8
Layer_1
 62
1
100
AcDbLine
 10
12.896661
 20
23.616657
 30
0.0
 11
12.412409
 21
23.616657
 31
0.0
  0
LINE
  5
323
100
AcDbEntity
  8
Layer_1
 62
1
100
AcDbLine
 10
12.412409
 20
23.616657
 30
0.0
 11
12.412409
 21
23.862878
 31
0.0
  0
LINE
  5
324
100
AcDbEntity
  8
Layer_1
 62
1
100
AcDbLine
 10
12.412409
 20
23.862878
 30
0.0
 11
12.406661
 21
23.868626
 31
0.0
  0
LINE
  5
325
100
AcDbEntity
  8
Layer_1
 62
1
100
AcDbLine
 10
12.406661
 20
23.868626
 30
0.0
 11
11.894535
 21
23.868626
 31
0.0
  0
LINE
  5
326
100
AcDbEntity
  8
Layer_1
 62
1
100
AcDbLine
 10
11.894535
 20
23.868626
 30
0.0
 11
11.888787
 21
23.862878
 31
0.0
  0
LINE
  5
327
100
AcDbEntity
  8
Layer_1
 62
1
100
AcDbLine
 10
11.888787
 20
23.862878
 30
0.0
 11
11.888787
 21
23.616657
 31
0.0
  0
LINE
  5
328
100
AcDbEntity
  8
Layer_1
 62
1
100
AcDbLine
 10
11.888787
 20
23.616657
 30
0.0
 11
11.404535
 21
23.616657
 31
0.0
  0
LINE
  5
329
100
AcDbEntity
  8
Layer_1
 62
1
100
AcDbLine
 10
11.404535
 20
23.616657
 30
0.0
 11
11.404535
 21
23.862878
 31
0.0
  0
LINE
  5
32a
100
AcDbEntity
  8
Layer_1
 62
1
100
AcDbLine
 10
11.404535
 20
23.862878
 30
0.0
 11
11.398787
 21
23.868626
 31
0.0
  0
LINE
  5
32b
100
AcDbEntity
  8
Layer_1
 62
1
100
AcDbLine
 10
11.398787
 20
23.868626
 30
0.0
 11
10.886661
 21
23.868626
 31
0.0
  0
LINE
  5
32c
100
AcDbEntity
  8
Layer_1
 62
1
100
AcDbLine
 10
10.886661
 20
23.868626
 30
0.0
 11
10.880913
 21
23.862878
 31
0.0
  0
LINE
  5
32d
100
AcDbEntity
  8
Layer_1
 62
1
100
AcDbLine
 10
10.880913
 20
23.862878
 30
0.0
 11
10.880913
 21
23.616657
 31
0.0
  0
LINE
  5
32e
100
AcDbEntity
  8
Layer_1
 62
1
100
AcDbLine
 10
10.880913
 20
23.616657
 30
0.0
 11
10.303984
 21
23.616657
 31
0.0
  0
LINE
  5
32f
100
AcDbEntity
  8
Layer_1
 62
1
100
AcDbLine
 10
10.303984
 20
23.616657
 30
0.0
 11
10.298236
 21
23.610909
 31
0.0
  0
LINE
  5
330
100
AcDbEntity
  8
Layer_1
 62
1
100
AcDbLine
 10
10.298236
 20
23.610909
 30
0.0
 11
10.298236
 21
23.096973
 31
0.0
  0
LINE
  5
331
100
AcDbEntity
  8
Layer_1
 62
1
100
AcDbLine
 10
10.298236
 20
23.096973
 30
0.0
 11
10.052016
 21
23.096973
 31
0.0
  0
LINE
  5
332
100
AcDbEntity
  8
Layer_1
 62
1
100
AcDbLine
 10
10.052016
 20
23.096973
 30
0.0
 11
10.046268
 21
23.091225
 31
0.0
  0
LINE
  5
333
100
AcDbEntity
  8
Layer_1
 62
1
100
AcDbLine
 10
10.046268
 20
23.091225
 30
0.0
 11
10.046268
 21
22.579099
 31
0.0
  0
LINE
  5
334
100
AcDbEntity
  8
Layer_1
 62
1
100
AcDbLine
 10
10.046268
 20
22.579099
 30
0.0
 11
10.052016
 21
22.573351
 31
0.0
  0
LINE
  5
335
100
AcDbEntity
  8
Layer_1
 62
1
100
AcDbLine
 10
10.052016
 20
22.573351
 30
0.0
 11
10.298236
 21
22.573351
 31
0.0
  0
LINE
  5
336
100
AcDbEntity
  8
Layer_1
 62
1
100
AcDbLine
 10
10.298236
 20
22.573351
 30
0.0
 11
10.298236
 21
22.089099
 31
0.0
  0
LINE
  5
337
100
AcDbEntity
  8
Layer_1
 62
1
100
AcDbLine
 10
10.298236
 20
22.089099
 30
0.0
 11
10.052016
 21
22.089099
 31
0.0
  0
LINE
  5
338
100
AcDbEntity
  8
Layer_1
 62
1
100
AcDbLine
 10
10.052016
 20
22.089099
 30
0.0
 11
10.046268
 21
22.083351
 31
0.0
  0
LINE
  5
339
100
AcDbEntity
  8
Layer_1
 62
1
100
AcDbLine
 10
10.046268
 20
22.083351
 30
0.0
 11
10.046268
 21
21.571225
 31
0.0
  0
LINE
  5
33a
100
AcDbEntity
  8
Layer_1
 62
1
100
AcDbLine
 10
10.046268
 20
21.571225
 30
0.0
 11
10.052016
 21
21.565477
 31
0.0
  0
LINE
  5
33b
100
AcDbEntity
  8
Layer_1
 62
1
100
AcDbLine
 10
10.052016
 20
21.565477
 30
0.0
 11
10.298236
 21
21.565477
 31
0.0
  0
LINE
  5
33c
100
AcDbEntity
  8
Layer_1
 62
1
100
AcDbLine
 10
10.298236
 20
21.565477
 30
0.0
 11
10.298236
 21
21.081226
 31
0.0
  0
LINE
  5
33d
100
AcDbEntity
  8
Layer_1
 62
1
100
AcDbLine
 10
10.298236
 20
21.081226
 30
0.0
 11
10.052016
 21
21.081226
 31
0.0
  0
LINE
  5
33e
100
AcDbEntity
  8
Layer_1
 62
1
100
AcDbLine
 10
10.052016
 20
21.081226
 30
0.0
 11
10.046268
 21
21.075478
 31
0.0
  0
LINE
  5
33f
100
AcDbEntity
  8
Layer_1
 62
1
100
AcDbLine
 10
10.046268
 20
21.075478
 30
0.0
 11
10.046268
 21
20.563352
 31
0.0
  0
LINE
  5
340
100
AcDbEntity
  8
Layer_1
 62
1
100
AcDbLine
 10
10.046268
 20
20.563352
 30
0.0
 11
10.052016
 21
20.557604
 31
0.0
  0
LINE
  5
341
100
AcDbEntity
  8
Layer_1
 62
1
100
AcDbLine
 10
10.052016
 20
20.557604
 30
0.0
 11
10.298236
 21
20.557604
 31
0.0
  0
LINE
  5
342
100
AcDbEntity
  8
Layer_1
 62
1
100
AcDbLine
 10
10.298236
 20
20.557604
 30
0.0
 11
10.298236
 21
20.073353
 31
0.0
  0
LINE
  5
343
100
AcDbEntity
  8
Layer_1
 62
1
100
AcDbLine
 10
10.298236
 20
20.073353
 30
0.0
 11
10.052016
 21
20.073353
 31
0.0
  0
LINE
  5
344
100
AcDbEntity
  8
Layer_1
 62
1
100
AcDbLine
 10
10.052016
 20
20.073353
 30
0.0
 11
10.046268
 21
20.067605
 31
0.0
  0
LINE
  5
345
100
AcDbEntity
  8
Layer_1
 62
1
100
AcDbLine
 10
10.046268
 20
20.067605
 30
0.0
 11
10.046268
 21
19.555479
 31
0.0
  0
LINE
  5
346
100
AcDbEntity
  8
Layer_1
 62
1
100
AcDbLine
 10
10.046268
 20
19.555479
 30
0.0
 11
10.052016
 21
19.549731
 31
0.0
  0
LINE
  5
347
100
AcDbEntity
  8
Layer_1
 62
1
100
AcDbLine
 10
10.052016
 20
19.549731
 30
0.0
 11
10.298236
 21
19.549731
 31
0.0
  0
LINE
  5
348
100
AcDbEntity
  8
Layer_1
 62
1
100
AcDbLine
 10
10.298236
 20
19.549731
 30
0.0
 11
10.298236
 21
19.065479
 31
0.0
  0
LINE
  5
349
100
AcDbEntity
  8
Layer_1
 62
1
100
AcDbLine
 10
10.298236
 20
19.065479
 30
0.0
 11
10.052016
 21
19.065479
 31
0.0
  0
LINE
  5
34a
100
AcDbEntity
  8
Layer_1
 62
1
100
AcDbLine
 10
10.052016
 20
19.065479
 30
0.0
 11
10.046268
 21
19.059731
 31
0.0
  0
LINE
  5
34b
100
AcDbEntity
  8
Layer_1
 62
1
100
AcDbLine
 10
10.046268
 20
19.059731
 30
0.0
 11
10.046268
 21
18.547605
 31
0.0
  0
LINE
  5
34c
100
AcDbEntity
  8
Layer_1
 62
1
100
AcDbLine
 10
10.046268
 20
18.547605
 30
0.0
 11
10.052016
 21
18.541857
 31
0.0
  0
LINE
  5
34d
100
AcDbEntity
  8
Layer_1
 62
1
100
AcDbLine
 10
10.052016
 20
18.541857
 30
0.0
 11
10.298236
 21
18.541857
 31
0.0
  0
LINE
  5
34e
100
AcDbEntity
  8
Layer_1
 62
1
100
AcDbLine
 10
10.298236
 20
18.541857
 30
0.0
 11
10.298236
 21
18.057605
 31
0.0
  0
LINE
  5
34f
100
AcDbEntity
  8
Layer_1
 62
1
100
AcDbLine
 10
10.298236
 20
18.057605
 30
0.0
 11
10.052016
 21
18.057605
 31
0.0
  0
LINE
  5
350
100
AcDbEntity
  8
Layer_1
 62
1
100
AcDbLine
 10
10.052016
 20
18.057605
 30
0.0
 11
10.046268
 21
18.051857
 31
0.0
  0
LINE
  5
351
100
AcDbEntity
  8
Layer_1
 62
1
100
AcDbLine
 10
10.046268
 20
18.051857
 30
0.0
 11
10.046268
 21
17.539731
 31
0.0
  0
LINE
  5
352
100
AcDbEntity
  8
Layer_1
 62
1
100
AcDbLine
 10
10.046268
 20
17.539731
 30
0.0
 11
10.052016
 21
17.533983
 31
0.0
  0
LINE
  5
353
100
AcDbEntity
  8
Layer_1
 62
1
100
AcDbLine
 10
10.052016
 20
17.533983
 30
0.0
 11
10.298236
 21
17.533983
 31
0.0
  0
LINE
  5
354
100
AcDbEntity
  8
Layer_1
 62
1
100
AcDbLine
 10
10.298236
 20
17.533983
 30
0.0
 11
10.298236
 21
17.020046
 31
0.0
  0
LINE
  5
355
100
AcDbEntity
  8
Layer_1
 62
1
100
AcDbLine
 10
10.298236
 20
17.020046
 30
0.0
 11
10.303984
 21
17.014298
 31
0.0
  0
LINE
  5
356
100
AcDbEntity
  8
Layer_1
 62
1
100
AcDbLine
 10
10.303984
 20
17.014298
 30
0.0
 11
10.880913
 21
17.014298
 31
0.0
  0
LINE
  5
357
100
AcDbEntity
  8
Layer_1
 62
1
100
AcDbLine
 10
10.880913
 20
17.014298
 30
0.0
 11
10.880913
 21
16.768077
 31
0.0
  0
LINE
  5
358
100
AcDbEntity
  8
Layer_1
 62
1
100
AcDbLine
 10
10.880913
 20
16.768077
 30
0.0
 11
10.886661
 21
16.762329
 31
0.0
  0
LINE
  5
359
100
AcDbEntity
  8
Layer_1
 62
1
100
AcDbLine
 10
10.886661
 20
16.762329
 30
0.0
 11
11.398787
 21
16.762329
 31
0.0
  0
LINE
  5
35a
100
AcDbEntity
  8
Layer_1
 62
1
100
AcDbLine
 10
11.398787
 20
16.762329
 30
0.0
 11
11.404535
 21
16.768077
 31
0.0
  0
LINE
  5
35b
100
AcDbEntity
  8
Layer_1
 62
1
100
AcDbLine
 10
11.404535
 20
16.768077
 30
0.0
 11
11.404535
 21
17.014298
 31
0.0
  0
LINE
  5
35c
100
AcDbEntity
  8
Layer_1
 62
1
100
AcDbLine
 10
11.404535
 20
17.014298
 30
0.0
 11
11.888787
 21
17.014298
 31
0.0
  0
LINE
  5
35d
100
AcDbEntity
  8
Layer_1
 62
1
100
AcDbLine
 10
11.888787
 20
17.014298
 30
0.0
 11
11.888787
 21
16.768077
 31
0.0
  0
LINE
  5
35e
100
AcDbEntity
  8
Layer_1
 62
1
100
AcDbLine
 10
11.888787
 20
16.768077
 30
0.0
 11
11.894535
 21
16.762329
 31
0.0
  0
LINE
  5
35f
100
AcDbEntity
  8
Layer_1
 62
1
100
AcDbLine
 10
11.894535
 20
16.762329
 30
0.0
 11
12.406661
 21
16.762329
 31
0.0
  0
LINE
  5
360
100
AcDbEntity
  8
Layer_1
 62
1
100
AcDbLine
 10
12.406661
 20
16.762329
 30
0.0
 11
12.412409
 21
16.768077
 31
0.0
  0
LINE
  5
361
100
AcDbEntity
  8
Layer_1
 62
1
100
AcDbLine
 10
12.412409
 20
16.768077
 30
0.0
 11
12.412409
 21
17.014298
 31
0.0
  0
LINE
  5
362
100
AcDbEntity
  8
Layer_1
 62
1
100
AcDbLine
 10
12.412409
 20
17.014298
 30
0.0
 11
12.896661
 21
17.014298
 31
0.0
  0
LINE
  5
363
100
AcDbEntity
  8
Layer_1
 62
1
100
AcDbLine
 10
12.896661
 20
17.014298
 30
0.0
 11
12.896661
 21
16.768077
 31
0.0
  0
LINE
  5
364
100
AcDbEntity
  8
Layer_1
 62
1
100
AcDbLine
 10
12.896661
 20
16.768077
 30
0.0
 11
12.902409
 21
16.762329
 31
0.0
  0
LINE
  5
365
100
AcDbEntity
  8
Layer_1
 62
1
100
AcDbLine
 10
12.902409
 20
16.762329
 30
0.0
 11
13.414535
 21
16.762329
 31
0.0
  0
LINE
  5
366
100
AcDbEntity
  8
Layer_1
 62
1
100
AcDbLine
 10
13.414535
 20
16.762329
 30
0.0
 11
13.420283
 21
16.768077
 31
0.0
  0
LINE
  5
367
100
AcDbEntity
  8
Layer_1
 62
1
100
AcDbLine
 10
13.420283
 20
16.768077
 30
0.0
 11
13.420283
 21
17.014298
 31
0.0
  0
LINE
  5
368
100
AcDbEntity
  8
Layer_1
 62
1
100
AcDbLine
 10
13.420283
 20
17.014298
 30
0.0
 11
13.904535
 21
17.014298
 31
0.0
  0
LINE
  5
369
100
AcDbEntity
  8
Layer_1
 62
1
100
AcDbLine
 10
13.904535
 20
17.014298
 30
0.0
 11
13.904535
 21
16.768077
 31
0.0
  0
LINE
  5
36a
100
AcDbEntity
  8
Layer_1
 62
1
100
AcDbLine
 10
13.904535
 20
16.768077
 30
0.0
 11
13.910283
 21
16.762329
 31
0.0
  0
LINE
  5
36b
100
AcDbEntity
  8
Layer_1
 62
1
100
AcDbLine
 10
13.910283
 20
16.762329
 30
0.0
 11
14.422409
 21
16.762329
 31
0.0
  0
LINE
  5
36c
100
AcDbEntity
  8
Layer_1
 62
1
100
AcDbLine
 10
14.422409
 20
16.762329
 30
0.0
 11
14.428157
 21
16.768077
 31
0.0
  0
LINE
  5
36d
100
AcDbEntity
  8
Layer_1
 62
1
100
AcDbLine
 10
14.428157
 20
16.768077
 30
0.0
 11
14.428157
 21
17.014298
 31
0.0
  0
LINE
  5
36e
100
AcDbEntity
  8
Layer_1
 62
1
100
AcDbLine
 10
14.428157
 20
17.014298
 30
0.0
 11
14.912409
 21
17.014298
 31
0.0
  0
LINE
  5
36f
100
AcDbEntity
  8
Layer_1
 62
1
100
AcDbLine
 10
14.912409
 20
17.014298
 30
0.0
 11
14.912409
 21
16.768077
 31
0.0
  0
LINE
  5
370
100
AcDbEntity
  8
Layer_1
 62
1
100
AcDbLine
 10
14.912409
 20
16.768077
 30
0.0
 11
14.918157
 21
16.762329
 31
0.0
  0
LINE
  5
371
100
AcDbEntity
  8
Layer_1
 62
1
100
AcDbLine
 10
14.918157
 20
16.762329
 30
0.0
 11
15.430283
 21
16.762329
 31
0.0
  0
LINE
  5
372
100
AcDbEntity
  8
Layer_1
 62
1
100
AcDbLine
 10
15.430283
 20
16.762329
 30
0.0
 11
15.436031
 21
16.768077
 31
0.0
  0
LINE
  5
373
100
AcDbEntity
  8
Layer_1
 62
1
100
AcDbLine
 10
15.436031
 20
16.768077
 30
0.0
 11
15.436031
 21
17.014298
 31
0.0
  0
LINE
  5
374
100
AcDbEntity
  8
Layer_1
 62
1
100
AcDbLine
 10
15.436031
 20
17.014298
 30
0.0
 11
15.920283
 21
17.014298
 31
0.0
  0
LINE
  5
375
100
AcDbEntity
  8
Layer_1
 62
1
100
AcDbLine
 10
15.920283
 20
17.014298
 30
0.0
 11
15.920283
 21
16.768077
 31
0.0
  0
LINE
  5
376
100
AcDbEntity
  8
Layer_1
 62
1
100
AcDbLine
 10
15.920283
 20
16.768077
 30
0.0
 11
15.926031
 21
16.762329
 31
0.0
  0
LINE
  5
377
100
AcDbEntity
  8
Layer_1
 62
1
100
AcDbLine
 10
15.926031
 20
16.762329
 30
0.0
 11
16.438157
 21
16.762329
 31
0.0
  0
LINE
  5
378
100
AcDbEntity
  8
Layer_1
 62
1
100
AcDbLine
 10
16.438157
 20
16.762329
 30
0.0
 11
16.443906
 21
16.768077
 31
0.0
  0
LINE
  5
379
100
AcDbEntity
  8
Layer_1
 62
1
100
AcDbLine
 10
16.443906
 20
16.768077
 30
0.0
 11
16.443906
 21
17.014298
 31
0.0
  0
LINE
  5
37a
100
AcDbEntity
  8
Layer_1
 62
1
100
AcDbLine
 10
16.443906
 20
17.014298
 30
0.0
 11
16.928157
 21
17.014298
 31
0.0
  0
LINE
  5
37b
100
AcDbEntity
  8
Layer_1
 62
1
100
AcDbLine
 10
16.928157
 20
17.014298
 30
0.0
 11
16.928157
 21
16.768077
 31
0.0
  0
LINE
  5
37c
100
AcDbEntity
  8
Layer_1
 62
1
100
AcDbLine
 10
16.928157
 20
16.768077
 30
0.0
 11
16.933906
 21
16.762329
 31
0.0
  0
LINE
  5
37d
100
AcDbEntity
  8
Layer_1
 62
1
100
AcDbLine
 10
16.933906
 20
16.762329
 30
0.0
 11
17.446031
 21
16.762329
 31
0.0
  0
LINE
  5
37e
100
AcDbEntity
  8
Layer_1
 62
1
100
AcDbLine
 10
17.446031
 20
16.762329
 30
0.0
 11
17.451780
 21
16.768077
 31
0.0
  0
LINE
  5
37f
100
AcDbEntity
  8
Layer_1
 62
1
100
AcDbLine
 10
17.451780
 20
16.768077
 30
0.0
 11
17.451780
 21
17.014298
 31
0.0
  0
LINE
  5
380
100
AcDbEntity
  8
Layer_1
 62
1
100
AcDbLine
 10
17.451780
 20
17.014298
 30
0.0
 11
17.936031
 21
17.014298
 31
0.0
  0
LINE
  5
381
100
AcDbEntity
  8
Layer_1
 62
1
100
AcDbLine
 10
17.936031
 20
17.014298
 30
0.0
 11
17.936031
 21
16.768077
 31
0.0
  0
LINE
  5
382
100
AcDbEntity
  8
Layer_1
 62
1
100
AcDbLine
 10
17.936031
 20
16.768077
 30
0.0
 11
17.941780
 21
16.762329
 31
0.0
  0
LINE
  5
383
100
AcDbEntity
  8
Layer_1
 62
1
100
AcDbLine
 10
17.941780
 20
16.762329
 30
0.0
 11
18.453906
 21
16.762329
 31
0.0
  0
LINE
  5
384
100
AcDbEntity
  8
Layer_1
 62
1
100
AcDbLine
 10
18.453906
 20
16.762329
 30
0.0
 11
18.459654
 21
16.768077
 31
0.0
  0
LINE
  5
385
100
AcDbEntity
  8
Layer_1
 62
1
100
AcDbLine
 10
18.459654
 20
16.768077
 30
0.0
 11
18.459654
 21
17.014298
 31
0.0
  0
LINE
  5
386
100
AcDbEntity
  8
Layer_1
 62
1
100
AcDbLine
 10
18.459654
 20
17.014298
 30
0.0
 11
18.943906
 21
17.014298
 31
0.0
  0
LINE
  5
387
100
AcDbEntity
  8
Layer_1
 62
1
100
AcDbLine
 10
18.943906
 20
17.014298
 30
0.0
 11
18.943906
 21
16.768077
 31
0.0
  0
LINE
  5
388
100
AcDbEntity
  8
Layer_1
 62
1
100
AcDbLine
 10
18.943906
 20
16.768077
 30
0.0
 11
18.949654
 21
16.762329
 31
0.0
  0
LINE
  5
389
100
AcDbEntity
  8
Layer_1
 62
1
100
AcDbLine
 10
18.949654
 20
16.762329
 30
0.0
 11
19.461780
 21
16.762329
 31
0.0
  0
LINE
  5
38a
100
AcDbEntity
  8
Layer_1
 62
1
100
AcDbLine
 10
19.461780
 20
16.762329
 30
0.0
 11
19.467528
 21
16.768077
 31
0.0
  0
LINE
  5
38b
100
AcDbEntity
  8
Layer_1
 62
1
100
AcDbLine
 10
19.467528
 20
16.768077
 30
0.0
 11
19.467528
 21
17.014298
 31
0.0
  0
LINE
  5
38c
100
AcDbEntity
  8
Layer_1
 62
1
100
AcDbLine
 10
19.467528
 20
17.014298
 30
0.0
 11
20.044457
 21
17.014298
 31
0.0
  0
LINE
  5
38d
100
AcDbEntity
  8
Layer_1
 62
1
100
AcDbLine
 10
20.044457
 20
17.014298
 30
0.0
 11
20.050205
 21
17.020046
 31
0.0
  0
LINE
  5
38e
100
AcDbEntity
  8
Layer_1
 62
1
100
AcDbLine
 10
20.050205
 20
17.020046
 30
0.0
 11
20.050205
 21
17.533983
 31
0.0
  0
LINE
  5
38f
100
AcDbEntity
  8
Layer_1
 62
1
100
AcDbLine
 10
20.050205
 20
17.533983
 30
0.0
 11
20.296425
 21
17.533983
 31
0.0
  0
LINE
  5
390
100
AcDbEntity
  8
Layer_1
 62
1
100
AcDbLine
 10
20.296425
 20
17.533983
 30
0.0
 11
20.302173
 21
17.539731
 31
0.0
  0
LINE
  5
391
100
AcDbEntity
  8
Layer_1
 62
1
100
AcDbLine
 10
20.302173
 20
17.539731
 30
0.0
 11
20.302173
 21
18.051857
 31
0.0
  0
LINE
  5
392
100
AcDbEntity
  8
Layer_1
 62
1
100
AcDbLine
 10
20.302173
 20
18.051857
 30
0.0
 11
20.296425
 21
18.057605
 31
0.0
  0
LINE
  5
393
100
AcDbEntity
  8
Layer_1
 62
1
100
AcDbLine
 10
0.128971
 20
9.584664
 30
0.0
 11
6.726020
 21
9.584664
 31
0.0
  0
LINE
  5
394
100
AcDbEntity
  8
Layer_1
 62
1
100
AcDbLine
 10
6.726020
 20
9.584664
 30
0.0
 11
6.726020
 21
9.348834
 31
0.0
  0
LINE
  5
395
100
AcDbEntity
  8
Layer_1
 62
1
100
AcDbLine
 10
6.726020
 20
9.348834
 30
0.0
 11
0.128971
 21
9.348834
 31
0.0
  0
LINE
  5
396
100
AcDbEntity
  8
Layer_1
 62
1
100
AcDbLine
 10
0.128971
 20
9.348834
 30
0.0
 11
0.128971
 21
9.584664
 31
0.0
  0
LINE
  5
397
100
AcDbEntity
  8
Layer_1
 62
1
100
AcDbLine
 10
13.337286
 20
9.542996
 30
0.0
 11
19.934335
 21
9.542996
 31
0.0
  0
LINE
  5
398
100
AcDbEntity
  8
Layer_1
 62
1
100
AcDbLine
 10
19.934335
 20
9.542996
 30
0.0
 11
19.934335
 21
9.307167
 31
0.0
  0
LINE
  5
399
100
AcDbEntity
  8
Layer_1
 62
1
100
AcDbLine
 10
19.934335
 20
9.307167
 30
0.0
 11
13.337286
 21
9.307167
 31
0.0
  0
LINE
  5
39a
100
AcDbEntity
  8
Layer_1
 62
1
100
AcDbLine
 10
13.337286
 20
9.307167
 30
0.0
 11
13.337286
 21
9.542996
 31
0.0
  0
LINE
  5
39b
100
AcDbEntity
  8
Layer_1
 62
1
100
AcDbLine
 10
13.337286
 20
9.903828
 30
0.0
 11
19.934335
 21
9.903828
 31
0.0
  0
LINE
  5
39c
100
AcDbEntity
  8
Layer_1
 62
1
100
AcDbLine
 10
19.934335
 20
9.903828
 30
0.0
 11
19.934335
 21
9.667999
 31
0.0
  0
LINE
  5
39d
100
AcDbEntity
  8
Layer_1
 62
1
100
AcDbLine
 10
19.934335
 20
9.667999
 30
0.0
 11
13.337286
 21
9.667999
 31
0.0
  0
LINE
  5
39e
100
AcDbEntity
  8
Layer_1
 62
1
100
AcDbLine
 10
13.337286
 20
9.667999
 30
0.0
 11
13.337286
 21
9.903828
 31
0.0
  0
LINE
  5
39f
100
AcDbEntity
  8
Layer_1
 62
1
100
AcDbLine
 10
5.300386
 20
20.539398
 30
0.0
 11
5.300386
 21
20.776080
 31
0.0
  0
LINE
  5
3a0
100
AcDbEntity
  8
Layer_1
 62
1
100
AcDbLine
 10
5.300386
 20
20.776080
 30
0.0
 11
8.134493
 21
20.776080
 31
0.0
  0
LINE
  5
3a1
100
AcDbEntity
  8
Layer_1
 62
1
100
AcDbLine
 10
8.134493
 20
20.776080
 30
0.0
 11
8.134493
 21
20.539398
 31
0.0
  0
LINE
  5
3a2
100
AcDbEntity
  8
Layer_1
 62
1
100
AcDbLine
 10
8.134493
 20
20.539398
 30
0.0
 11
5.300386
 21
20.539398
 31
0.0
  0
LINE
  5
3a3
100
AcDbEntity
  8
Layer_1
 62
1
100
AcDbLine
 10
5.337819
 20
20.977331
 30
0.0
 11
5.337819
 21
21.214013
 31
0.0
  0
LINE
  5
3a4
100
AcDbEntity
  8
Layer_1
 62
1
100
AcDbLine
 10
5.337819
 20
21.214013
 30
0.0
 11
8.171926
 21
21.214013
 31
0.0
  0
LINE
  5
3a5
100
AcDbEntity
  8
Layer_1
 62
1
100
AcDbLine
 10
8.171926
 20
21.214013
 30
0.0
 11
8.171926
 21
20.977331
 31
0.0
  0
LINE
  5
3a6
100
AcDbEntity
  8
Layer_1
 62
1
100
AcDbLine
 10
8.171926
 20
20.977331
 30
0.0
 11
5.337819
 21
20.977331
 31
0.0
  0
LINE
  5
3a7
100
AcDbEntity
  8
Layer_1
 62
1
100
AcDbLine
 10
6.931238
 20
9.763609
 30
0.0
 11
6.931238
 21
10.000031
 31
0.0
  0
LINE
  5
3a8
100
AcDbEntity
  8
Layer_1
 62
1
100
AcDbLine
 10
6.931238
 20
10.000031
 30
0.0
 11
13.155834
 21
10.000031
 31
0.0
  0
LINE
  5
3a9
100
AcDbEntity
  8
Layer_1
 62
1
100
AcDbLine
 10
13.155834
 20
10.000031
 30
0.0
 11
13.155834
 21
9.763609
 31
0.0
  0
LINE
  5
3aa
100
AcDbEntity
  8
Layer_1
 62
1
100
AcDbLine
 10
13.155834
 20
9.763609
 30
0.0
 11
6.931238
 21
9.763609
 31
0.0
  0
LINE
  5
3ab
100
AcDbEntity
  8
Layer_1
 62
1
100
AcDbLine
 10
6.869900
 20
9.338915
 30
0.0
 11
6.869900
 21
9.575337
 31
0.0
  0
LINE
  5
3ac
100
AcDbEntity
  8
Layer_1
 62
1
100
AcDbLine
 10
6.869900
 20
9.575337
 30
0.0
 11
13.094496
 21
9.575337
 31
0.0
  0
LINE
  5
3ad
100
AcDbEntity
  8
Layer_1
 62
1
100
AcDbLine
 10
13.094496
 20
9.575337
 30
0.0
 11
13.094496
 21
9.338915
 31
0.0
  0
LINE
  5
3ae
100
AcDbEntity
  8
Layer_1
 62
1
100
AcDbLine
 10
13.094496
 20
9.338915
 30
0.0
 11
6.869900
 21
9.338915
 31
0.0
  0
LINE
  5
3af
100
AcDbEntity
  8
Layer_1
 62
1
100
AcDbLine
 10
5.300386
 20
20.039397
 30
0.0
 11
5.300386
 21
20.276079
 31
0.0
  0
LINE
  5
3b0
100
AcDbEntity
  8
Layer_1
 62
1
100
AcDbLine
 10
5.300386
 20
20.276079
 30
0.0
 11
8.134493
 21
20.276079
 31
0.0
  0
LINE
  5
3b1
100
AcDbEntity
  8
Layer_1
 62
1
100
AcDbLine
 10
8.134493
 20
20.276079
 30
0.0
 11
8.134493
 21
20.039397
 31
0.0
  0
LINE
  5
3b2
100
AcDbEntity
  8
Layer_1
 62
1
100
AcDbLine
 10
8.134493
 20
20.039397
 30
0.0
 11
5.300386
 21
20.039397
 31
0.0
  0
LINE
  5
3b3
100
AcDbEntity
  8
Layer_1
 62
1
100
AcDbLine
 10
5.300386
 20
19.560230
 30
0.0
 11
5.300386
 21
19.796912
 31
0.0
  0
LINE
  5
3b4
100
AcDbEntity
  8
Layer_1
 62
1
100
AcDbLine
 10
5.300386
 20
19.796912
 30
0.0
 11
8.134493
 21
19.796912
 31
0.0
  0
LINE
  5
3b5
100
AcDbEntity
  8
Layer_1
 62
1
100
AcDbLine
 10
8.134493
 20
19.796912
 30
0.0
 11
8.134493
 21
19.560230
 31
0.0
  0
LINE
  5
3b6
100
AcDbEntity
  8
Layer_1
 62
1
100
AcDbLine
 10
8.134493
 20
19.560230
 30
0.0
 11
5.300386
 21
19.560230
 31
0.0
  0
LINE
  5
3b7
100
AcDbEntity
  8
Layer_1
 62
1
100
AcDbLine
 10
0.223720
 20
23.831323
 30
0.0
 11
6.820770
 21
23.831323
 31
0.0
  0
LINE
  5
3b8
100
AcDbEntity
  8
Layer_1
 62
1
100
AcDbLine
 10
6.820770
 20
23.831323
 30
0.0
 11
6.820770
 21
23.595493
 31
0.0
  0
LINE
  5
3b9
100
AcDbEntity
  8
Layer_1
 62
1
100
AcDbLine
 10
6.820770
 20
23.595493
 30
0.0
 11
0.223720
 21
23.595493
 31
0.0
  0
LINE
  5
3ba
100
AcDbEntity
  8
Layer_1
 62
1
100
AcDbLine
 10
0.223720
 20
23.595493
 30
0.0
 11
0.223720
 21
23.831323
 31
0.0
  0
ENDSEC
  0
SECTION
  2
OBJECTS
  0
DICTIONARY
  5
C
330
0
100
AcDbDictionary
  3
ACAD_GROUP
350
D
  3
ACAD_MLINESTYLE
350
17
  0
DICTIONARY
  5
D
330
C
100
AcDbDictionary
  0
DICTIONARY
  5
1A
330
C
100
AcDbDictionary
  0
DICTIONARY
  5
17
330
C
100
AcDbDictionary
  3
STANDARD
350
18
  0
DICTIONARY
  5
19
330
C
100
AcDbDictionary
  0
ENDSEC
  0
EOF
