<?xml version="1.0" encoding="UTF-8" standalone="no"?>
<svg
   xmlns:dc="http://purl.org/dc/elements/1.1/"
   xmlns:cc="http://creativecommons.org/ns#"
   xmlns:rdf="http://www.w3.org/1999/02/22-rdf-syntax-ns#"
   xmlns:svg="http://www.w3.org/2000/svg"
   xmlns="http://www.w3.org/2000/svg"
   xmlns:sodipodi="http://sodipodi.sourceforge.net/DTD/sodipodi-0.dtd"
   xmlns:inkscape="http://www.inkscape.org/namespaces/inkscape"
   sodipodi:docname="SpeakerFrontArt.svg"
   inkscape:version="1.0 (4035a4fb49, 2020-05-01)"
   id="svg8"
   version="1.1"
   viewBox="0 0 1219.2 609.60002"
   height="24in"
   width="48in">
  <defs
     id="defs2" />
  <sodipodi:namedview
     showguides="false"
     units="in"
     inkscape:window-maximized="1"
     inkscape:window-y="-6"
     inkscape:window-x="-6"
     inkscape:window-height="1018"
     inkscape:window-width="1920"
     showgrid="false"
     inkscape:document-rotation="0"
     inkscape:current-layer="layer1"
     inkscape:document-units="mm"
     inkscape:cy="955.35642"
     inkscape:cx="936.8992"
     inkscape:zoom="0.25"
     inkscape:pageshadow="2"
     inkscape:pageopacity="0.0"
     borderopacity="1.0"
     bordercolor="#666666"
     pagecolor="#ffffff"
     id="base" />
  <metadata
     id="metadata5">
    <rdf:RDF>
      <cc:Work
         rdf:about="">
        <dc:format>image/svg+xml</dc:format>
        <dc:type
           rdf:resource="http://purl.org/dc/dcmitype/StillImage" />
        <dc:title />
      </cc:Work>
    </rdf:RDF>
  </metadata>
  <g
     id="layer1"
     inkscape:groupmode="layer"
     inkscape:label="Layer 1">
    <path
       d="m 202.07054,253.85315 v -6.254 h 12.3 v 6.254 l 0.146,0.146 h 13.008 l 0.146,-0.146 v -6.254 h 12.3 v 6.254 l 0.146,0.146 h 13.008 l 0.146,-0.146 v -6.254 h 12.3 v 6.254 l 0.146,0.146 h 13.008 l 0.146,-0.146 v -6.254 h 12.3 v 6.254 l 0.146,0.146 h 13.008 l 0.146,-0.146 v -6.254 h 12.3 v 6.254 l 0.146,0.146 h 13.008 l 0.146,-0.146 v -6.254 h 12.3 v 6.254 l 0.146,0.146 h 13.008 l 0.146,-0.146 v -6.254 h 12.3 v 6.254 l 0.146,0.146 h 13.008 l 0.146,-0.146 v -6.254 h 12.3 v 6.254 l 0.146,0.146 h 13.008 l 0.146,-0.146 v -6.254 h 12.3 v 6.254 l 0.146,0.146 h 15.008 l 0.146,-0.146 v -7.854 h 6.254 l 0.146,-0.146 v -13.008 l -0.146,-0.146 h -6.254 v -12.3 h 6.254 l 0.146,-0.146 v -13.008 l -0.146,-0.146 h -6.254 v -12.3 h 6.254 l 0.146,-0.146 v -13.008 l -0.146,-0.146 h -6.254 v -7.854 l -0.146,-0.146 h -247.408 l -0.146,0.146 v 7.854 h -6.254 l -0.146,0.146 v 13.008 l 0.146,0.146 h 6.254 v 12.3 h -6.254 l -0.146,0.146 v 13.008 l 0.146,0.146 h 6.254 v 12.3 h -6.254 l -0.146,0.146 v 13.008 l 0.146,0.146 h 6.254 v 7.854 l 0.146,0.146 h 15.008 z"
       id="left_outsideCutPath-9"
       stroke="#FF0000"
       stroke-width="0.001"
       style="font-size:12px;fill:none;fill-rule:evenodd;stroke:#ff0000;stroke-width:0.254;stroke-linecap:round;stroke-miterlimit:4;stroke-dasharray:none;stroke-opacity:1"
       vector-effect="non-scaling-stroke" />
    <path
       d="m 204.63763,158.15319 v -6.254 h 12.3 v 6.254 l 0.146,0.146 h 13.008 l 0.146,-0.146 v -6.254 h 12.3 v 6.254 l 0.146,0.146 h 13.008 l 0.146,-0.146 v -6.254 h 12.3 v 6.254 l 0.146,0.146 h 13.008 l 0.146,-0.146 v -6.254 h 12.3 v 6.254 l 0.146,0.146 h 13.008 l 0.146,-0.146 v -6.254 h 12.3 v 6.254 l 0.146,0.146 h 13.008 l 0.146,-0.146 v -6.254 h 12.3 v 6.254 l 0.146,0.146 h 13.008 l 0.146,-0.146 v -6.254 h 12.3 v 6.254 l 0.146,0.146 h 13.008 l 0.146,-0.146 v -6.254 h 12.3 v 6.254 l 0.146,0.146 h 13.008 l 0.146,-0.146 v -6.254 h 12.3 v 6.254 l 0.146,0.146 h 15.008 l 0.146,-0.146 v -7.854 h 6.254 l 0.146,-0.146 v -13.008 l -0.146,-0.146 h -6.254 v -12.3 h 6.254 l 0.146,-0.146 v -13.008 l -0.146,-0.146 h -6.254 V 99.099193 h 6.254 l 0.146,-0.146 V 85.945199 l -0.146,-0.146 h -6.254 v -7.853994 l -0.146,-0.146 h -247.408 l -0.146,0.146 v 7.853994 h -6.254 l -0.146,0.146 v 13.007994 l 0.146,0.146 h 6.254 v 12.299997 h -6.254 l -0.146,0.146 v 13.008 l 0.146,0.146 h 6.254 v 12.3 h -6.254 l -0.146,0.146 v 13.008 l 0.146,0.146 h 6.254 v 7.854 l 0.146,0.146 h 15.008 z"
       id="right_outsideCutPath-9"
       stroke="#FF0000"
       stroke-width="0.001"
       style="font-size:12px;fill:none;fill-rule:evenodd;stroke:#ff0000;stroke-width:0.254;stroke-linecap:round;stroke-miterlimit:4;stroke-dasharray:none;stroke-opacity:1"
       vector-effect="non-scaling-stroke" />
    <g
       style="stroke-width:0.254;stroke-miterlimit:4;stroke-dasharray:none"
       id="g870"
       transform="rotate(-90,125.81565,135.91601)">
      <rect
         y="5.1533213"
         x="-185.35741"
         height="247.67419"
         width="167.67459"
         id="rect1104"
         style="fill:none;stroke:#ff0000;stroke-width:0.254;stroke-miterlimit:4;stroke-dasharray:none;stroke-opacity:1"
         transform="rotate(-90)" />
      <rect
         ry="25.197243"
         y="110.47552"
         x="-161.03963"
         height="121.78669"
         width="119.03902"
         id="rect1108"
         style="fill:none;stroke:#ff0000;stroke-width:0.254;stroke-miterlimit:4;stroke-dasharray:none;stroke-opacity:1"
         transform="rotate(-90)" />
      <circle
         style="fill:none;stroke:#ff0000;stroke-width:0.254;stroke-miterlimit:4;stroke-dasharray:none;stroke-opacity:1"
         id="path1246"
         cx="47.553761"
         cy="162.35802"
         r="5.5" />
    </g>
    <rect
       style="fill:none;stroke:#00ff00;stroke-width:0.254;stroke-miterlimit:4;stroke-dasharray:none;stroke-opacity:1"
       id="rect872"
       width="79.375"
       height="8.9958334"
       x="26.987488"
       y="160.86699" />
    <circle
       style="fill:none;stroke:#00ff00;stroke-width:0.254;stroke-miterlimit:4;stroke-dasharray:none;stroke-opacity:1"
       id="path874"
       cx="131.82687"
       cy="163.7962"
       r="6" />
    <circle
       style="fill:none;stroke:#00ff00;stroke-width:0.254;stroke-miterlimit:4;stroke-dasharray:none;stroke-opacity:1"
       id="path878"
       cx="121.1637"
       cy="228.69434"
       r="16" />
    <path
       style="fill:none;stroke:#00ff00;stroke-width:0.254;stroke-linecap:butt;stroke-linejoin:miter;stroke-miterlimit:4;stroke-dasharray:none;stroke-opacity:1"
       d="m 114.27576,187.70242 -8.33437,12.22375 17.06562,-0.0794 z"
       id="path880"
       sodipodi:nodetypes="cccc" />
    <rect
       style="fill:none;stroke:#00ff00;stroke-width:0.254;stroke-miterlimit:4;stroke-dasharray:none;stroke-opacity:1"
       id="rect882"
       width="15.715447"
       height="5.6126599"
       x="16.33083"
       y="237.73763" />
    <rect
       y="237.73763"
       x="42.789169"
       height="5.6126599"
       width="15.715447"
       id="rect886"
       style="fill:none;stroke:#00ff00;stroke-width:0.254;stroke-miterlimit:4;stroke-dasharray:none;stroke-opacity:1" />
    <path
       style="fill:none;stroke:#00ff00;stroke-width:0.254;stroke-linecap:butt;stroke-linejoin:miter;stroke-miterlimit:4;stroke-dasharray:none;stroke-opacity:1"
       d="m 37.765877,186.11164 h 10.327294 v 11.37499 h 9.578941 v 8.68091 H 47.79383 v 10.17763 H 37.316863 v -10.47696 h -9.87828 v -8.83059 l 10.327294,0.22451 z"
       id="path888"
       sodipodi:nodetypes="ccccccccccccc" />
    <text
       xml:space="preserve"
       style="font-style:normal;font-variant:normal;font-weight:normal;font-stretch:normal;font-size:50.8px;line-height:1.25;font-family:sans-serif;-inkscape-font-specification:'sans-serif, Normal';font-variant-ligatures:normal;font-variant-caps:normal;font-variant-numeric:normal;font-variant-east-asian:normal;fill:none;fill-opacity:1;stroke:#00ff00;stroke-width:0.254;stroke-miterlimit:4;stroke-dasharray:none;stroke-opacity:1"
       x="-351.9191"
       y="-95.704865"
       id="text892"
       transform="scale(-1)"><tspan
         sodipodi:role="line"
         id="tspan890"
         x="-351.9191"
         y="-95.704865"
         style="font-style:normal;font-variant:normal;font-weight:normal;font-stretch:normal;font-size:50.8px;font-family:sans-serif;-inkscape-font-specification:'sans-serif, Normal';font-variant-ligatures:normal;font-variant-caps:normal;font-variant-numeric:normal;font-variant-east-asian:normal;fill:none;stroke:#00ff00;stroke-width:0.254;stroke-miterlimit:4;stroke-dasharray:none;stroke-opacity:1">BMO</tspan></text>
    <text
       transform="scale(-1)"
       id="text859"
       y="-190.95491"
       x="-354.56497"
       style="font-style:normal;font-variant:normal;font-weight:normal;font-stretch:normal;font-size:50.8px;line-height:1.25;font-family:sans-serif;-inkscape-font-specification:'sans-serif, Normal';font-variant-ligatures:normal;font-variant-caps:normal;font-variant-numeric:normal;font-variant-east-asian:normal;fill:none;fill-opacity:1;stroke:#00ff00;stroke-width:0.254;stroke-miterlimit:4;stroke-dasharray:none;stroke-opacity:1"
       xml:space="preserve"><tspan
         style="font-style:normal;font-variant:normal;font-weight:normal;font-stretch:normal;font-size:50.8px;font-family:sans-serif;-inkscape-font-specification:'sans-serif, Normal';font-variant-ligatures:normal;font-variant-caps:normal;font-variant-numeric:normal;font-variant-east-asian:normal;fill:none;stroke:#00ff00;stroke-width:0.254;stroke-miterlimit:4;stroke-dasharray:none;stroke-opacity:1"
         y="-190.95491"
         x="-354.56497"
         id="tspan857"
         sodipodi:role="line">BMO</tspan></text>
  </g>
</svg>
